<svg width="48" height="48" viewBox="0 0 48 48" fill="none" xmlns="http://www.w3.org/2000/svg">
<path fill-rule="evenodd" clip-rule="evenodd" d="M24 36.75C31.0416 36.75 36.75 31.0416 36.75 24C36.75 16.9584 31.0416 11.25 24 11.25C16.9584 11.25 11.25 16.9584 11.25 24C11.25 31.0416 16.9584 36.75 24 36.75ZM24 39C32.2843 39 39 32.2843 39 24C39 15.7157 32.2843 9 24 9C15.7157 9 9 15.7157 9 24C9 32.2843 15.7157 39 24 39Z" fill="#2E2E3A"/>
<path fill-rule="evenodd" clip-rule="evenodd" d="M24 41.25C33.5269 41.25 41.25 33.5269 41.25 24C41.25 14.4731 33.5269 6.75 24 6.75C14.4731 6.75 6.75 14.4731 6.75 24C6.75 33.5269 14.4731 41.25 24 41.25ZM24 43.5C34.7695 43.5 43.5 34.7695 43.5 24C43.5 13.2304 34.7695 4.5 24 4.5C13.2304 4.5 4.5 13.2304 4.5 24C4.5 34.7695 13.2304 43.5 24 43.5Z" fill="#2E2E3A"/>
<path fill-rule="evenodd" clip-rule="evenodd" d="M24 45.75C36.0122 45.75 45.75 36.0122 45.75 24C45.75 11.9878 36.0122 2.25 24 2.25C11.9878 2.25 2.25 11.9878 2.25 24C2.25 36.0122 11.9878 45.75 24 45.75ZM24 48C37.2548 48 48 37.2548 48 24C48 10.7452 37.2548 0 24 0C10.7452 0 0 10.7452 0 24C0 37.2548 10.7452 48 24 48Z" fill="#2E2E3A"/>
</svg>
