<svg width="107" height="19" viewBox="0 0 107 19" fill="none" xmlns="http://www.w3.org/2000/svg">
<g clip-path="url(#clip0_55_33574)">
<mask id="mask0_55_33574" style="mask-type:luminance" maskUnits="userSpaceOnUse" x="0" y="0" width="107" height="19">
<path d="M106.422 0.8125H0.672363V18.8125H106.422V0.8125Z" fill="white"/>
</mask>
<g mask="url(#mask0_55_33574)">
<path d="M10.9939 12.071H4.62617V9.45592H10.9939C12.096 9.45592 12.6996 9.98234 12.6996 10.7635C12.6996 11.5446 12.096 12.071 10.9939 12.071ZM4.62617 4.05592H10.6178C11.7374 4.05592 12.3672 4.48045 12.3672 5.27856C12.3672 6.08517 11.7461 6.50121 10.6178 6.50121H4.62617V4.05592ZM14.1778 7.80875C15.0962 7.38422 16.2158 6.38234 16.2158 4.7946C16.2158 2.24743 14.344 0.863471 11.0376 0.85498H0.716309V15.2804H11.3875C14.7201 15.2804 16.6269 13.7521 16.6269 11.205C16.6357 9.49838 15.5073 8.33517 14.1778 7.80875Z" fill="#2E2E3A"/>
<path d="M47.101 12.2747C45.8939 12.2747 45.3341 11.8756 45.3341 10.9077V7.77467H49.6638V4.67561H45.3341V1.86523H41.4417V4.67561H40.777H36.4472V1.86523H32.5549V4.67561H30.2632V7.77467H32.5549V11.969C32.5549 14.3973 34.4267 15.4841 37.0245 15.4841C38.8964 15.4841 40.2871 15.1615 41.3105 14.7794L40.5845 11.8416C39.8585 12.1049 39.0276 12.2662 38.2141 12.2662C37.007 12.2662 36.4472 11.8671 36.4472 10.8992V7.77467H39.1588H41.4505V11.969C41.4505 14.3973 43.3223 15.4841 45.9201 15.4841C47.792 15.4841 49.1827 15.1615 50.2061 14.7794L49.4801 11.8501C48.7454 12.1133 47.9144 12.2747 47.101 12.2747Z" fill="#2E2E3A"/>
<path d="M67.5688 6.45038V4.68434H63.6152V15.289H67.5688V11.273C67.5688 9.02302 69.1695 8.2334 71.3562 8.24189C71.9598 8.24189 72.2309 8.28434 72.7295 8.36076V4.70981C72.3796 4.66736 72.021 4.6334 71.5224 4.6334C69.7293 4.62491 68.5222 5.1683 67.5688 6.45038Z" fill="#2E2E3A"/>
<path d="M85.0277 8.47932C85.0277 10.7888 83.7769 12.0963 81.1791 12.0963C78.5813 12.0963 77.3304 10.7888 77.3304 8.47932V0.863281H73.2544V8.8614C73.2544 13.0048 76.0621 15.5095 81.1791 15.5095C86.296 15.5095 89.1037 12.9963 89.1037 8.8614V0.863281H85.0277V8.47932Z" fill="#2E2E3A"/>
<path d="M96.4073 12.5038C94.7804 12.5038 93.4946 11.4935 93.4946 10.0501V9.93119C93.4946 8.48781 94.7891 7.47742 96.4073 7.47742C98.008 7.47742 99.3375 8.36044 99.3375 9.98214C99.3375 11.6123 98.008 12.5038 96.4073 12.5038ZM97.3607 4.44629C95.6376 4.44629 94.2818 5.04913 93.5908 5.7963V4.69252H89.6372V18.7699H93.5908V14.1935C94.2818 14.9406 95.6288 15.5435 97.352 15.5435C101.078 15.5435 103.221 13.0557 103.221 9.99912C103.23 6.94251 101.087 4.44629 97.3607 4.44629Z" fill="#2E2E3A"/>
<path d="M26.432 11.2644L30.0532 12.2918C29.1873 14.338 26.6157 15.5267 23.7992 15.5267C19.7669 15.5267 16.9854 13.2597 16.9854 9.96535C16.9854 6.78988 19.8019 4.43799 23.7555 4.43799C27.9365 4.43799 30.2107 6.98516 30.2107 9.98233V10.9078H20.8865C21.2626 11.9946 22.3122 12.5974 23.7817 12.5974C24.9625 12.5889 25.9947 12.1304 26.432 11.2644ZM20.9477 8.81062H26.2046C26.0821 8.08892 25.1899 7.28232 23.6767 7.28232C22.4522 7.29081 21.4025 7.79175 20.9477 8.81062Z" fill="#2E2E3A"/>
<path d="M59.2855 11.2644L62.9067 12.2918C62.0408 14.338 59.4692 15.5267 56.6527 15.5267C52.6204 15.5267 49.8389 13.2597 49.8389 9.96535C49.8389 6.78988 52.6554 4.43799 56.609 4.43799C60.79 4.43799 63.0642 6.98516 63.0642 9.98233V10.9078H53.74C54.1161 11.9946 55.1657 12.5974 56.6352 12.5974C57.816 12.5889 58.8482 12.1304 59.2855 11.2644ZM53.8012 8.81062H59.0581C58.9356 8.08892 58.0435 7.28232 56.5302 7.28232C55.3144 7.29081 54.2561 7.79175 53.8012 8.81062Z" fill="#2E2E3A"/>
<path d="M106.421 2.35575C106.421 3.22073 105.732 3.84919 104.882 3.84919C104.033 3.84919 103.344 3.22073 103.344 2.35575C103.344 1.49077 104.033 0.862305 104.882 0.862305C105.732 0.862305 106.421 1.49077 106.421 2.35575ZM106.184 2.35575C106.184 1.61916 105.606 1.07179 104.882 1.07179C104.158 1.07179 103.58 1.61916 103.58 2.35575C103.58 3.08558 104.158 3.6397 104.882 3.6397C105.606 3.6397 106.184 3.08558 106.184 2.35575ZM105.648 3.08558H105.16L104.847 2.58551H104.638V3.08558H104.2V1.57862H104.951C105.335 1.57862 105.572 1.74756 105.572 2.06517C105.572 2.30168 105.405 2.41657 105.251 2.47739L105.648 3.08558ZM105.118 2.09895C105.118 1.97732 105.021 1.92326 104.889 1.92326H104.638V2.27466H104.889C105.021 2.27466 105.118 2.2206 105.118 2.09895Z" fill="#2E2E3A"/>
</g>
</g>
<defs>
<clipPath id="clip0_55_33574">
<rect width="105.75" height="18" fill="white" transform="translate(0.672363 0.8125)"/>
</clipPath>
</defs>
</svg>
