<svg width="90" height="19" viewBox="0 0 90 19" fill="none" xmlns="http://www.w3.org/2000/svg">
<g clip-path="url(#clip0_55_33589)">
<path d="M43.3881 8.34603L42.8285 6.8142C44.2153 6.18207 45.5786 5.76847 47.4046 5.76847C50.8359 5.76847 52.7588 7.52089 52.7588 10.8307V18.5204H50.9574V16.622C50.0812 17.7647 48.6249 18.7859 46.4058 18.7859C44.0693 18.7859 41.7082 17.4716 41.7082 14.843C41.7082 12.1654 43.8987 10.7581 47.088 10.7581C48.3971 10.7458 49.7008 10.9261 50.9574 11.2933V10.8531C50.9574 8.58908 49.5706 7.42081 47.2095 7.42081C45.7247 7.42081 44.5564 7.81091 43.3881 8.34603ZM43.6067 14.7715C43.6067 16.3779 45.067 17.3031 46.7724 17.3031C49.0845 17.3031 50.9829 15.8918 50.9829 13.8953V12.6791C49.781 12.3263 48.5347 12.1475 47.282 12.148C44.921 12.148 43.6067 13.1692 43.6067 14.7715ZM58.3153 14.9421C58.3153 16.4739 59.167 17.0356 60.4323 17.0356C61.0673 17.0388 61.6937 16.8885 62.2582 16.5975V18.2039C61.5602 18.569 60.7818 18.7533 59.9942 18.74C57.9742 18.74 56.4403 17.7412 56.4403 15.1862V7.59135H54.2794V5.93595H55.0331C55.4063 5.93595 55.7642 5.78769 56.0282 5.52378C56.2921 5.25987 56.4403 4.90194 56.4403 4.52871V2.14008H58.3153V5.93595H62.3093V7.59135H58.3153V14.9421ZM70.5811 18.8125C66.9047 18.8125 64.1311 15.8183 64.1311 12.2644C64.1311 8.69018 66.9058 5.66839 70.5811 5.66839C72.9667 5.66839 74.4516 6.66715 75.6198 7.90793L74.3801 9.22224C73.3823 8.17549 72.2621 7.32379 70.5587 7.32379C68.0056 7.32379 66.0551 9.48979 66.0551 12.2164C66.0551 14.9666 68.0516 17.1326 70.6802 17.1326C72.2866 17.1326 73.5274 16.3299 74.5261 15.2587L75.7189 16.382C74.4526 17.7903 72.9432 18.8125 70.5811 18.8125ZM80.4481 18.5204H78.5742V1.08925H80.4481V8.12749C81.2764 6.76416 82.5927 5.66839 84.7567 5.66839C87.7999 5.66839 89.5768 7.71083 89.5768 10.7071V18.5204H87.7019V11.1677C87.7019 8.83111 86.4366 7.37077 84.2216 7.37077C82.0555 7.37077 80.443 8.95263 80.443 11.3137L80.4481 18.5204ZM37.6979 1.06066V8.6912C36.7308 8.98531 35.1448 9.25594 33.0003 9.25594C30.8884 9.25594 29.3239 8.99348 28.3486 8.70448V1.06066H26.4951V18.5592H28.3486V10.6254C30.2695 11.1023 32.5724 11.1268 33.0003 11.1268C33.4282 11.1268 35.7668 11.1023 37.6979 10.6162V18.5592H39.5504V1.06066H37.6979ZM10.4314 0.8125C12.9844 1.91542 14.9043 5.64389 15.2934 9.22938C14.6806 9.67566 12.4258 10.366 8.70243 10.366C4.97805 10.366 2.72217 9.67566 2.11046 9.22938C2.50363 5.64389 4.42659 1.91542 6.97657 0.8125H0.831898C0.696476 0.8125 0.566601 0.866296 0.470843 0.962054C0.375085 1.05781 0.321289 1.18769 0.321289 1.32311L0.321289 18.2968C0.321289 18.4322 0.375085 18.5621 0.470843 18.6578C0.566601 18.7536 0.696476 18.8074 0.831898 18.8074H6.87956C4.28464 17.7862 2.32594 14.8461 2.07064 11.3198C2.91825 11.6681 5.16493 12.2512 8.70856 12.2798C12.2491 12.2512 14.4958 11.667 15.3465 11.3198C15.0912 14.8461 13.1335 17.7872 10.5376 18.8074H16.5852C16.7206 18.8074 16.8505 18.7536 16.9463 18.6578C17.042 18.5621 17.0958 18.4322 17.0958 18.2968V1.32311C17.0958 1.18769 17.042 1.05781 16.9463 0.962054C16.8505 0.866296 16.7206 0.8125 16.5852 0.8125H10.4314Z" fill="#2E2E3A"/>
</g>
<defs>
<clipPath id="clip0_55_33589">
<rect width="89.2555" height="18" fill="white" transform="translate(0.321289 0.8125)"/>
</clipPath>
</defs>
</svg>
