<svg width="90" height="19" viewBox="0 0 90 19" fill="none" xmlns="http://www.w3.org/2000/svg">
<g clip-path="url(#clip0_55_33761)">
<path d="M43.3881 8.40853L42.8285 6.8767C44.2153 6.24457 45.5786 5.83097 47.4046 5.83097C50.8359 5.83097 52.7588 7.58339 52.7588 10.8932V18.5829H50.9574V16.6845C50.0812 17.8272 48.6249 18.8484 46.4058 18.8484C44.0693 18.8484 41.7082 17.5341 41.7082 14.9055C41.7082 12.2279 43.8987 10.8206 47.088 10.8206C48.3971 10.8083 49.7008 10.9886 50.9574 11.3558V10.9156C50.9574 8.65158 49.5706 7.48331 47.2095 7.48331C45.7247 7.48331 44.5564 7.87341 43.3881 8.40853ZM43.6067 14.834C43.6067 16.4404 45.067 17.3656 46.7724 17.3656C49.0845 17.3656 50.9829 15.9543 50.9829 13.9578V12.7416C49.781 12.3888 48.5347 12.21 47.282 12.2105C44.921 12.2105 43.6067 13.2317 43.6067 14.834ZM58.3153 15.0046C58.3153 16.5364 59.167 17.0981 60.4323 17.0981C61.0673 17.1013 61.6937 16.951 62.2582 16.66V18.2664C61.5602 18.6315 60.7818 18.8158 59.9942 18.8025C57.9742 18.8025 56.4403 17.8037 56.4403 15.2487V7.65385H54.2794V5.99845H55.0331C55.4063 5.99845 55.7642 5.85019 56.0282 5.58628C56.2921 5.32237 56.4403 4.96444 56.4403 4.59121V2.20258H58.3153V5.99845H62.3093V7.65385H58.3153V15.0046ZM70.5811 18.875C66.9047 18.875 64.1311 15.8808 64.1311 12.3269C64.1311 8.75268 66.9058 5.73089 70.5811 5.73089C72.9667 5.73089 74.4516 6.72965 75.6198 7.97043L74.3801 9.28474C73.3823 8.23799 72.2621 7.38629 70.5587 7.38629C68.0056 7.38629 66.0551 9.55229 66.0551 12.2789C66.0551 15.0291 68.0516 17.1951 70.6802 17.1951C72.2866 17.1951 73.5274 16.3924 74.5261 15.3212L75.7189 16.4445C74.4526 17.8528 72.9432 18.875 70.5811 18.875ZM80.4481 18.5829H78.5742V1.15175H80.4481V8.18999C81.2764 6.82666 82.5927 5.73089 84.7567 5.73089C87.7999 5.73089 89.5768 7.77333 89.5768 10.7696V18.5829H87.7019V11.2302C87.7019 8.89361 86.4366 7.43327 84.2216 7.43327C82.0555 7.43327 80.443 9.01513 80.443 11.3762L80.4481 18.5829ZM37.6979 1.12316V8.7537C36.7308 9.04781 35.1448 9.31844 33.0003 9.31844C30.8884 9.31844 29.3239 9.05598 28.3486 8.76698V1.12316H26.4951V18.6217H28.3486V10.6879C30.2695 11.1648 32.5724 11.1893 33.0003 11.1893C33.4282 11.1893 35.7668 11.1648 37.6979 10.6787V18.6217H39.5504V1.12316H37.6979ZM10.4314 0.875C12.9844 1.97792 14.9043 5.70639 15.2934 9.29188C14.6806 9.73816 12.4258 10.4285 8.70243 10.4285C4.97805 10.4285 2.72217 9.73816 2.11046 9.29188C2.50363 5.70639 4.42659 1.97792 6.97657 0.875H0.831898C0.696476 0.875 0.566601 0.928796 0.470843 1.02455C0.375085 1.12031 0.321289 1.25019 0.321289 1.38561L0.321289 18.3593C0.321289 18.4947 0.375085 18.6246 0.470843 18.7203C0.566601 18.8161 0.696476 18.8699 0.831898 18.8699H6.87956C4.28464 17.8487 2.32594 14.9086 2.07064 11.3823C2.91825 11.7306 5.16493 12.3137 8.70856 12.3423C12.2491 12.3137 14.4958 11.7295 15.3465 11.3823C15.0912 14.9086 13.1335 17.8497 10.5376 18.8699H16.5852C16.7206 18.8699 16.8505 18.8161 16.9463 18.7203C17.042 18.6246 17.0958 18.4947 17.0958 18.3593V1.38561C17.0958 1.25019 17.042 1.12031 16.9463 1.02455C16.8505 0.928796 16.7206 0.875 16.5852 0.875H10.4314Z" fill="#F7F7FF"/>
</g>
<defs>
<clipPath id="clip0_55_33761">
<rect width="89.2555" height="18" fill="white" transform="translate(0.321289 0.875)"/>
</clipPath>
</defs>
</svg>
