<svg width="80" height="27" viewBox="0 0 80 27" fill="none" xmlns="http://www.w3.org/2000/svg">
<g clip-path="url(#clip0_55_33605)">
<path fill-rule="evenodd" clip-rule="evenodd" d="M0.739444 10.6012C0.609753 9.91575 0.554199 9.11923 0.554199 8.24839H2.81428C2.81428 9.9899 2.99952 12.2685 5.35212 12.2685C7.44534 12.2685 7.74169 10.4345 7.74169 8.60047V1.0791L10.0017 1.09768V8.56331C10.0017 9.50809 9.90906 10.6753 9.66824 11.4534C9.11254 13.3245 7.48229 14.2879 5.37051 14.2879C2.53632 14.2879 1.16548 12.8429 0.739444 10.6012Z" fill="#2E2E3A"/>
<path fill-rule="evenodd" clip-rule="evenodd" d="M17.4905 12.8798C17.2126 13.4541 15.8048 14.2877 14.4525 14.2877C12.526 14.2877 11.3218 13.2688 11.3218 11.4718C11.3218 9.5636 12.8595 8.78566 14.2673 8.58183C14.545 8.52631 15.286 8.45216 15.9714 8.35964L17.2867 8.17418C17.2867 7.71116 17.2311 6.45146 15.527 6.45146C14.4895 6.45146 13.8412 6.8589 13.7671 7.72974H11.6183C11.7109 6.04381 12.915 4.72852 15.4713 4.72852C17.7499 4.72852 19.3059 5.50666 19.3059 7.82231V11.5645C19.3059 12.1572 19.454 12.4351 20.1766 12.4351V14.047C19.0835 14.2877 17.6943 14.1581 17.4905 12.8798ZM14.7303 10.1379C14.0448 10.3418 13.7671 10.6381 13.6188 10.9532C13.2669 11.7497 13.8041 12.6018 14.7119 12.6018C16.1939 12.6018 17.2867 11.6015 17.2867 10.4714V9.67492C16.5829 9.76743 15.3787 9.93432 14.7303 10.1379Z" fill="#2E2E3A"/>
<path fill-rule="evenodd" clip-rule="evenodd" d="M26.1054 4.74707C27.8468 4.74707 29.1621 5.71047 29.1621 7.84087V14.047H27.0317V8.02607C27.0317 7.21097 26.5315 6.45145 25.5683 6.45145C24.4569 6.45145 23.4749 7.22955 23.4749 8.74865V14.047H21.3447V4.9695H23.4565V6.09954C23.7529 5.3028 24.9754 4.74707 26.1054 4.74707Z" fill="#2E2E3A"/>
<path fill-rule="evenodd" clip-rule="evenodd" d="M33.811 14.2691C32.0697 14.2691 30.7544 13.3057 30.7544 11.1754V4.96924H32.8848V10.9901C32.8848 11.8052 33.3849 12.5647 34.3481 12.5647C35.4596 12.5462 36.386 11.8238 36.386 10.2677V4.96924H38.5162V14.0469H36.4044V12.9167C36.108 13.7134 34.978 14.2691 33.811 14.2691Z" fill="#2E2E3A"/>
<path fill-rule="evenodd" clip-rule="evenodd" d="M46.0379 12.8798C45.76 13.4541 44.3521 14.2877 42.9999 14.2877C41.0734 14.2877 39.8691 13.2688 39.8691 11.4718C39.8691 9.5636 41.4069 8.78566 42.8147 8.58183C43.0924 8.52631 43.8334 8.45216 44.5188 8.35964L45.8341 8.17418C45.8341 7.71116 45.7786 6.45146 44.0744 6.45146C43.0369 6.45146 42.3886 6.8589 42.3145 7.72974H40.1657C40.2582 6.04381 41.4625 4.72852 44.0188 4.72852C46.2973 4.72852 47.8534 5.50666 47.8534 7.82231V11.5645C47.8534 12.1572 48.0015 12.4351 48.724 12.4351V14.047C47.631 14.2877 46.2417 14.1581 46.0379 12.8798ZM43.2776 10.1379C42.5923 10.3418 42.3145 10.6381 42.1662 10.9532C41.8143 11.7497 42.3514 12.6018 43.2593 12.6018C44.7412 12.6018 45.8341 11.6015 45.8341 10.4714V9.67492C45.1303 9.76743 43.9261 9.93432 43.2776 10.1379Z" fill="#2E2E3A"/>
<path fill-rule="evenodd" clip-rule="evenodd" d="M52.0351 5.82151C52.6094 5.1361 53.2021 4.76562 54.0914 4.76562C54.6655 4.76562 55.2397 4.8953 55.7028 5.19165L55.1286 7.26648C54.6655 6.95155 54.221 6.8033 53.795 6.8033C52.9058 6.8033 52.0537 7.43337 52.0537 8.85974V14.0469H49.9233V4.93229H52.0351V5.82151Z" fill="#2E2E3A"/>
<path fill-rule="evenodd" clip-rule="evenodd" d="M62.4901 4.96924H64.7499L63.0826 10.0081L61.3044 15.325C61.0081 16.1401 60.1929 17.8444 58.2293 17.8444C57.933 17.8444 57.6367 17.8258 57.4141 17.7703L57.0436 17.6962V15.751C57.0994 15.7696 57.1736 15.8066 57.2662 15.8252C57.4141 15.8621 57.5994 15.8807 57.8404 15.8807C58.1925 15.8807 58.6556 15.7141 58.9335 15.3991C59.1371 15.1584 59.304 14.7877 59.3966 14.5099L59.5445 14.0098L56.3584 4.96924H58.6924L60.5818 11.3976L62.4901 4.96924Z" fill="#2E2E3A"/>
<path fill-rule="evenodd" clip-rule="evenodd" d="M67.9194 14.0343H79.1298V12.1152H67.9194V14.0343Z" fill="#2E2E3A"/>
<path fill-rule="evenodd" clip-rule="evenodd" d="M64.8267 26.5099H66.7458V15.3794H64.8267V26.5099Z" fill="#2E2E3A"/>
</g>
<defs>
<clipPath id="clip0_55_33605">
<rect width="79.0833" height="26" fill="white" transform="translate(0.4375 0.8125)"/>
</clipPath>
</defs>
</svg>
