<svg width="171" height="19" viewBox="0 0 171 19" fill="none" xmlns="http://www.w3.org/2000/svg">
<g clip-path="url(#clip0_55_33764)">
<mask id="mask0_55_33764" style="mask-type:luminance" maskUnits="userSpaceOnUse" x="0" y="0" width="17" height="19">
<path d="M16.1499 0.875H0.337402V18.875H16.1499V0.875Z" fill="white"/>
</mask>
<g mask="url(#mask0_55_33764)">
<mask id="mask1_55_33764" style="mask-type:luminance" maskUnits="userSpaceOnUse" x="0" y="0" width="17" height="19">
<path d="M16.1499 0.875H0.337402V18.875H16.1499V0.875Z" fill="white"/>
</mask>
<g mask="url(#mask1_55_33764)">
<path fill-rule="evenodd" clip-rule="evenodd" d="M8.41306 18.8716C10.9137 18.5257 16.1499 13.0087 16.1499 8.78094C16.1499 8.04181 16.0476 7.32687 15.8562 6.64794L12.16 10.3132C12.1843 10.3739 12.1973 10.4403 12.1973 10.5095C12.1973 10.8048 11.9562 11.0439 11.6586 11.0439C11.5885 11.0439 11.5219 11.0304 11.4603 11.0067L8.70899 13.7349C8.71237 13.7591 8.71405 13.7838 8.71405 13.8091C8.71405 14.0195 8.59098 14.2018 8.4125 14.2889V18.8716H8.41306ZM7.96126 18.875C5.42055 18.5651 0.337402 13.0239 0.337402 8.78094C0.337402 8.07556 0.427194 7.39156 0.596048 6.74075L5.89154 11.9911C5.87461 12.0429 5.86555 12.0986 5.86555 12.1559C5.86555 12.4513 6.1067 12.6903 6.40432 12.6903C6.46248 12.6903 6.51839 12.6813 6.57037 12.6644L7.64221 13.7276C7.63827 13.754 7.63597 13.781 7.63597 13.8086C7.63597 14.0279 7.76984 14.2169 7.9607 14.2991L7.96126 18.875ZM0.740621 6.24912L6.19934 11.6615C6.26257 11.6356 6.33147 11.6216 6.40432 11.6216C6.70193 11.6216 6.94308 11.8606 6.94308 12.1559C6.94308 12.2279 6.92896 12.2966 6.90297 12.359L7.90085 13.3484C7.92003 13.3372 7.94039 13.3271 7.96126 13.3181V8.09412C7.76247 8.01537 7.62247 7.823 7.62247 7.598C7.62247 7.5485 7.62922 7.50012 7.64221 7.45456L5.86387 5.69113C5.81532 5.70575 5.76335 5.71306 5.70968 5.71306C5.41208 5.71306 5.17094 5.474 5.17094 5.17869C5.17094 5.12581 5.17885 5.07463 5.19353 5.02625L2.98148 2.83363C1.95931 3.7415 1.17998 4.91544 0.740621 6.24912ZM3.32879 2.54281L5.4934 4.68931C5.55947 4.66063 5.6329 4.64431 5.70968 4.64431C6.0073 4.64431 6.24845 4.88338 6.24845 5.17869C6.24845 5.25519 6.23264 5.32719 6.20328 5.393L7.93645 7.112C7.94433 7.10806 7.95282 7.10469 7.9607 7.10131V0.877812C6.19878 0.923938 4.60056 1.53819 3.32822 2.54281H3.32879ZM8.15498 0.875H8.19734C8.18997 0.875 8.18322 0.875 8.17585 0.875C8.16854 0.875 8.16173 0.875 8.15442 0.875H8.15498ZM8.41306 0.878375V7.12494C8.42099 7.12888 8.4283 7.13338 8.43567 7.13731L13.0721 2.54056C11.7788 1.54156 10.1671 0.929 8.41306 0.878375ZM13.4228 2.82744L8.69375 7.51587C8.69768 7.54231 8.69993 7.56988 8.69993 7.59744C8.69993 7.80275 8.58361 7.9805 8.4125 8.0705V13.3287C8.42718 13.3361 8.44073 13.3434 8.45429 13.3518L11.1475 10.6816C11.1289 10.6276 11.1187 10.5697 11.1187 10.5095C11.1187 10.2142 11.3598 9.97512 11.6574 9.97512C11.7179 9.97512 11.7766 9.98525 11.8308 10.0033L15.702 6.16531C15.2418 4.86369 14.4478 3.71731 13.4222 2.828L13.4228 2.82744Z" fill="#F7F7FF"/>
<path d="M10.9414 1.36377C10.955 1.36883 10.9679 1.37389 10.9815 1.37839C11.0239 1.39414 11.0662 1.41046 11.1086 1.42677C11.1317 1.43577 11.1543 1.44477 11.1769 1.45377C11.2204 1.47121 11.2633 1.48921 11.3062 1.50721C11.335 1.51902 11.3633 1.5314 11.3915 1.54377C11.4321 1.56177 11.4728 1.57977 11.5135 1.59833C11.5411 1.61071 11.5682 1.62365 11.5954 1.63658C11.6247 1.65065 11.6546 1.66471 11.684 1.67933C11.7122 1.69283 11.7405 1.7069 11.7687 1.72096C11.8161 1.74458 11.8631 1.76877 11.9099 1.79352C11.9421 1.8104 11.9737 1.82783 12.0059 1.84527C12.0274 1.85708 12.0488 1.86833 12.0697 1.88015C12.1031 1.89871 12.1369 1.91783 12.1702 1.93696C12.1855 1.9454 12.2002 1.9544 12.2154 1.9634C12.2854 2.00446 12.3549 2.04608 12.4232 2.08883C12.4317 2.0939 12.4402 2.09896 12.4487 2.10458C12.4865 2.12821 12.5243 2.1524 12.5616 2.17715C12.5712 2.18333 12.5808 2.18952 12.5904 2.19571C12.7118 2.27558 12.8304 2.35883 12.9468 2.4449L12.9535 2.44996C12.9936 2.47977 13.0337 2.51015 13.0733 2.54052L8.43681 7.13782C8.42944 7.13332 8.42157 7.12938 8.4142 7.12545V3.4844C9.25339 2.74133 10.096 2.03483 10.9425 1.36377H10.9414ZM6.19935 11.6614C6.26258 11.6356 6.33149 11.6215 6.40433 11.6215C6.70195 11.6215 6.94309 11.8606 6.94309 12.1559C6.94309 12.2279 6.92897 12.2965 6.90299 12.3589L7.90086 13.3484C7.9201 13.3371 7.9404 13.327 7.96133 13.318V8.09407C7.76254 8.01532 7.62248 7.82295 7.62248 7.59795C7.62248 7.54845 7.62923 7.50007 7.64222 7.45451L5.9514 5.77771C5.01962 6.68895 4.0912 7.64632 3.16391 8.65151L6.19935 11.6614ZM7.84894 14.2321C7.72019 14.1342 7.6366 13.9812 7.6366 13.8085C7.6366 13.7809 7.63885 13.7539 7.64279 13.7275L6.57094 12.6644C6.5184 12.6813 6.46249 12.6903 6.40489 12.6903C6.10727 12.6903 5.86613 12.4512 5.86613 12.1559C5.86613 12.0985 5.87519 12.0428 5.89212 11.9911L2.85952 8.98395C2.1841 9.72476 1.50925 10.4903 0.834961 11.2823C1.85882 14.0678 4.27756 16.8753 6.28069 18.1566C6.77704 16.8376 7.30281 15.5213 7.85007 14.2326L7.84894 14.2321ZM7.96133 7.10126V3.88827C7.3977 4.39677 6.83582 4.92158 6.27445 5.46327L7.93703 7.11138C7.9449 7.10745 7.9534 7.10407 7.96133 7.10126ZM13.4228 2.8274L8.69376 7.51582C8.6977 7.54226 8.69995 7.56982 8.69995 7.59738C8.69995 7.8027 8.58362 7.98045 8.41251 8.07045V12.931C10.0937 9.13751 11.9556 5.66971 13.8323 3.2099C13.7001 3.07771 13.564 2.95002 13.4228 2.8274Z" fill="#F7F7FF"/>
<path d="M8.41286 12.9311C10.0941 9.13759 11.956 5.66977 13.8326 3.20996C14.0523 3.42934 14.2595 3.66109 14.4521 3.90521C13.4796 5.66246 12.4004 7.6959 11.4477 10.0179C11.2546 10.0995 11.119 10.289 11.119 10.5101C11.119 10.5703 11.1292 10.6282 11.1478 10.6822L8.45465 13.3524C8.4411 13.344 8.42698 13.3366 8.41286 13.3293V12.9311ZM7.96106 18.861V14.2991C7.92039 14.2816 7.88315 14.2586 7.84867 14.2321C7.30147 15.5208 6.77627 16.8371 6.2793 18.1561C6.89709 18.5516 7.4754 18.8013 7.96106 18.861ZM9.08263 18.6703C9.42767 16.1008 10.0585 13.7608 10.8226 11.639L8.70935 13.7343C8.71273 13.7585 8.71442 13.7833 8.71442 13.8086C8.71442 14.019 8.59128 14.2012 8.41286 14.2884V18.857C8.61896 18.8283 8.84373 18.7653 9.08263 18.6703Z" fill="#F7F7FF"/>
</g>
</g>
<path d="M85.009 9.48104H84.9055V10.4215H89.9567V9.48104H85.009ZM155.526 3.90554H154.608L148.992 16.2918H150.023L155.06 5.10029L158.154 11.884H154.079L153.598 12.8245H158.579L160.163 16.2918H161.194L155.526 3.90554ZM115.706 15.367V3.90554H114.765V16.2918H121.124V15.3693H115.706V15.367ZM44.6822 3.90554V9.62054H38.7084V10.543H44.6822V16.2918H45.6227V3.90554H44.6822ZM27.1772 6.88454V16.2918H28.1177V6.88454H27.1772ZM23.0664 3.90554V4.83029H32.2284V3.90554H23.0664ZM164.785 15.3693V3.90554H163.844V16.2918H170.203V15.3693H164.785ZM35.7092 3.90554V16.2918H36.6497V3.90554H35.7092ZM78.2522 3.90554L73.1335 14.6358L68.0147 3.90554H67.018L72.931 16.2918H73.3382L79.249 3.90554H78.2522ZM82.849 15.367V4.83029H89.9725V3.90554H81.9085V16.2918H90.1997V15.3693H82.849V15.367ZM109.921 5.76179C108.755 4.53554 107.158 3.86279 105.425 3.86279C101.987 3.86279 99.1907 6.65954 99.1907 10.0998C99.1907 13.54 101.987 16.3368 105.425 16.3368C108.863 16.3368 111.662 13.54 111.662 10.0998V9.48104H105.322V10.3698H110.756C110.612 13.234 108.305 15.448 105.425 15.448C102.545 15.448 100.088 13.1013 100.088 10.0998C100.088 7.09829 102.433 4.75154 105.425 4.75154C106.901 4.75154 108.272 5.32979 109.264 6.35129L109.919 5.76179H109.921ZM63.2425 3.90554V16.2918H64.183V3.90554H63.2425ZM55.2099 12.3408H55.4597C57.8582 12.3408 59.8135 10.4508 59.8135 8.12204C59.8135 5.79329 57.8582 3.90554 55.4619 3.90554H50.0889V16.2918H51.0047V4.80329H55.4619C57.361 4.80329 58.9 6.29729 58.9 8.12429C58.9 9.95129 57.361 11.4453 55.4619 11.4453H52.6202L58.8302 16.2918H60.349L55.2099 12.343V12.3408ZM128.515 15.3828C125.522 15.3828 123.063 13.0045 123.063 10.0863C123.063 7.16804 125.52 4.80779 128.515 4.80779C131.51 4.80779 133.967 7.16804 133.967 10.0863C133.967 13.0045 131.507 15.3828 128.515 15.3828ZM128.515 3.88979C124.978 3.88979 122.105 6.65054 122.105 10.0908C122.105 13.531 124.976 16.3098 128.515 16.3098C132.054 16.3098 134.925 13.531 134.925 10.0908C134.925 6.65054 132.054 3.88979 128.515 3.88979ZM144.672 9.81179C145.219 9.63404 145.667 9.34604 145.995 8.95229C146.414 8.45054 146.634 7.79579 146.634 7.02629C146.634 6.04754 146.27 5.26454 145.59 4.72454C144.915 4.18904 143.939 3.90779 142.73 3.90779H137.643V16.2918H142.764C144.155 16.2918 145.271 15.988 146.045 15.412C146.823 14.8315 147.242 13.981 147.242 12.9145C147.242 12.037 146.965 11.2968 146.438 10.7455C146.004 10.291 145.406 9.97379 144.672 9.81179ZM145.381 14.6965C144.776 15.1285 143.878 15.3603 142.715 15.3513H138.586V4.83029H142.715C143.675 4.83029 144.422 5.04629 144.924 5.43329C145.424 5.81804 145.694 6.38279 145.694 7.11179C145.694 7.84079 145.421 8.43254 144.924 8.82179C144.422 9.21329 143.678 9.42929 142.715 9.42929H140.642V10.3518H142.715C143.878 10.3518 144.778 10.5858 145.383 11.0088C145.984 11.4273 146.303 12.0393 146.303 12.8268C146.303 13.6143 145.982 14.269 145.383 14.6965H145.381Z" fill="#F7F7FF"/>
</g>
<defs>
<clipPath id="clip0_55_33764">
<rect width="170.438" height="18" fill="white" transform="translate(0 0.875)"/>
</clipPath>
</defs>
</svg>
