<svg width="118" height="16" viewBox="0 0 118 16" fill="none" xmlns="http://www.w3.org/2000/svg">
<g clip-path="url(#clip0_55_33587)">
<path d="M25.5081 0.610017L32.3304 14.7261H29.8741L28.4197 11.6189H22.5804L21.1259 14.7261H18.6884L25.5081 0.610017ZM23.5634 9.53502H27.4366L25.5107 5.40734L23.5634 9.53502ZM35.1161 0.765374H37.3956V7.78323L43.5402 0.765374H46.2536L40.0286 7.86359L46.8482 14.7234H43.9795L37.3956 8.1368V14.7234H35.1161V0.765374ZM49.9688 0.765374H52.2482V14.7234H49.9688V0.765374ZM92.8983 9.29662V0.765374H95.1777V9.35555C95.1777 11.5172 96.5331 12.7172 98.5206 12.7172C100.505 12.7172 101.842 11.5172 101.842 9.35555V0.765374H104.121V9.29662C104.121 12.7359 101.802 14.8788 98.5179 14.8788C95.2366 14.8814 92.8983 12.7386 92.8983 9.29662ZM108.23 0.765374H112.398C115.288 0.765374 117.273 2.57341 117.273 5.20912C117.273 7.80466 115.288 9.65287 112.398 9.65287H110.51V14.7234H108.23V0.765374ZM112.299 7.52877C113.971 7.52877 114.954 6.60466 114.954 5.20912C114.954 3.81359 113.971 2.88948 112.299 2.88948H110.51V7.52877H112.299ZM0.0134277 0.730552H2.35182L5.96789 9.29394L9.65361 0.575195L13.3232 9.24037L16.8643 0.730552H19.2241L13.4116 14.8466L9.65628 5.80377L5.90093 14.8466L0.0134277 0.730552ZM59.7241 5.89752V14.7234H57.4447V0.607338L66.4634 9.66895V0.762695H68.7429V14.8788L59.7241 5.89752ZM78.0483 8.74752H82.4732V11.9725C81.6857 12.4654 80.6438 12.7198 79.6233 12.7198C76.8697 12.7198 74.8072 10.5368 74.8072 7.74573C74.8072 4.95466 76.8724 2.77162 79.6233 2.77162C80.8125 2.77162 81.9965 3.18948 82.8536 3.8993L84.4125 2.34037C83.1563 1.19662 81.4581 0.607338 79.6233 0.607338C75.6724 0.607338 72.4875 3.71448 72.4875 7.74305C72.4875 11.7716 75.6724 14.8788 79.6233 14.8788C81.5893 14.8788 83.4563 14.2091 84.7527 13.0895V6.54305H78.9563L78.0483 8.74752Z" fill="#2E2E3A"/>
</g>
<defs>
<clipPath id="clip0_55_33587">
<rect width="117.321" height="15" fill="white" transform="translate(0 0.3125)"/>
</clipPath>
</defs>
</svg>
