<svg width="129" height="27" viewBox="0 0 129 27" fill="none" xmlns="http://www.w3.org/2000/svg">
<g clip-path="url(#clip0_55_33566)">
<path d="M72.2469 5.95703C72.4682 5.95703 72.5235 6.23363 72.5235 6.4549C72.5788 7.34001 72.6341 8.1698 72.6341 9.0549C72.6895 9.88469 72.6895 10.7145 72.6895 11.5443C73.1873 11.157 73.6299 10.7698 74.1831 10.6038C75.0682 10.2166 76.1192 10.2166 77.0043 10.6592C77.9448 11.157 78.5533 12.0421 78.8852 12.9826C79.1618 13.923 79.2724 14.9187 79.2171 15.8592C79.1065 17.0209 78.8299 18.1272 78.166 19.0677C77.7788 19.6209 77.2809 20.0634 76.6171 20.2847C75.566 20.6719 74.4597 20.506 73.5192 19.9528C73.2426 19.7868 72.966 19.5102 72.7448 19.289C72.6341 19.6209 72.5788 19.9528 72.4682 20.2847C71.9703 20.2847 71.5277 20.34 71.0299 20.2294C71.1958 19.4549 71.1958 18.6251 71.2512 17.8507C71.3065 15.0294 71.2512 12.2081 71.2512 9.44214C71.1958 8.33576 71.2512 7.22937 71.0852 6.17831C71.4171 6.06767 71.8597 5.95703 72.2469 5.95703ZM75.898 11.7655C75.4554 11.6549 75.0129 11.6549 74.6256 11.7102C73.8512 11.8209 73.2426 12.3741 72.7448 12.9272C72.7448 13.0932 72.7448 13.3145 72.7448 13.4804V17.9613C72.7448 18.1272 72.8554 18.2379 72.966 18.2932C73.7405 19.0124 74.8469 19.3443 75.8426 19.123C76.3405 19.0124 76.7831 18.6804 77.0043 18.2379C77.3916 17.6294 77.5022 16.9102 77.5575 16.1911C77.6129 15.6379 77.6682 15.0847 77.6129 14.5868C77.6129 13.9783 77.4469 13.3145 77.115 12.7613C76.8384 12.2081 76.3958 11.8762 75.898 11.7655ZM82.2597 6.34427C82.5363 6.23363 82.9235 6.23363 83.2001 6.39958C83.4767 6.56554 83.698 6.84214 83.8086 7.11873C83.9746 7.78256 83.4767 8.50171 82.8129 8.55703C82.315 8.61235 81.7618 8.33576 81.5958 7.78256C81.3746 7.28469 81.7065 6.56554 82.2597 6.34427ZM36.5107 7.50597C37.2299 7.0081 38.115 6.62086 39.0001 6.62086C39.9405 6.62086 40.881 6.67618 41.7107 7.06341C42.0427 7.22937 42.3746 7.39533 42.7065 7.61661C42.4852 8.00384 42.2086 8.28044 41.932 8.61235C41.6001 8.44639 41.2682 8.22512 40.881 8.05916C39.9959 7.72724 38.9448 7.67193 38.0597 8.05916C37.2852 8.33576 36.6767 8.94427 36.2895 9.66342C36.0682 10.2166 35.8469 10.7698 35.7363 11.323C35.6256 11.8762 35.6256 12.4294 35.5703 12.9826C35.5703 13.7017 35.515 14.4762 35.5703 15.1953C35.681 16.2464 36.0682 17.2421 36.732 18.0166C37.3405 18.7358 38.2256 19.123 39.1661 19.2336C39.6639 19.2336 40.1065 19.2336 40.6044 19.123C41.1576 19.0124 41.6554 18.6804 42.2086 18.4592C42.4852 18.7358 42.7618 19.123 43.0384 19.4549C42.6512 19.6762 42.2639 19.8975 41.8214 20.0634C40.715 20.506 39.4427 20.5613 38.281 20.3953C37.3958 20.2294 36.6214 19.7868 35.9576 19.2336C35.1831 18.5698 34.6299 17.6847 34.298 16.7443C34.0767 16.0804 33.9661 15.4166 33.9107 14.7528C33.9107 14.2549 33.8001 13.757 33.9107 13.2038C33.9107 12.2634 34.0767 11.2677 34.4639 10.3826C34.8512 9.27618 35.515 8.22512 36.5107 7.50597Z" fill="#2E2E3A"/>
<path d="M0 0.8125V26.8125H25.834V0.8125H0ZM17.5915 8.28059C16.3745 10.6593 15.1021 13.038 13.8298 15.4168C13.7745 15.5274 13.7745 15.5827 13.7745 15.6934C13.7745 17.4082 13.7745 19.1231 13.7745 20.7827C13.166 20.7827 12.5574 20.7827 11.9489 20.7827C11.9489 19.1231 11.9489 17.4636 11.9489 15.804C11.9489 15.638 11.9489 15.4168 11.8383 15.2508C10.6766 13.0934 9.57021 10.9359 8.40851 8.72314C8.13191 8.22527 7.85532 7.72739 7.63404 7.1742C7.74468 7.1742 7.85532 7.11888 7.96595 7.11888C8.51914 7.11888 9.07234 7.11888 9.62553 7.1742C9.73617 7.1742 9.73617 7.22952 9.79149 7.28484C10.6213 8.99973 11.4511 10.7699 12.3362 12.5402C12.5021 12.9274 12.6681 13.2593 12.8894 13.5912C13.0553 13.3146 13.2213 13.038 13.3872 12.7061C14.3277 10.8253 15.2681 8.99973 16.2085 7.11888C16.817 7.11888 17.4255 7.06356 18.0894 7.1742C17.9787 7.67207 17.7574 7.94867 17.5915 8.28059Z" fill="#2E2E3A"/>
<path d="M107.43 8.05911C107.928 7.89315 108.425 7.78251 108.979 7.67188C108.868 8.6123 108.813 9.55273 108.813 10.5485C109.587 10.5485 110.417 10.5485 111.191 10.6038C111.081 10.991 110.915 11.3229 110.749 11.6549C110.085 11.6549 109.421 11.6549 108.702 11.6549C108.702 12.54 108.702 13.4251 108.702 14.3102C108.702 14.974 108.757 15.6932 108.702 16.4123C108.702 17.1868 108.702 18.0166 108.757 18.791C108.757 19.1229 109.089 19.3442 109.366 19.4549C109.864 19.5655 110.362 19.5102 110.86 19.3995C110.97 19.6761 111.025 20.008 111.025 20.2846C110.583 20.5059 110.085 20.5612 109.587 20.6166C108.923 20.6166 108.149 20.5059 107.651 20.008C107.264 19.6208 107.264 19.0123 107.208 18.5144C107.153 17.408 107.208 16.2463 107.153 15.14C107.153 13.9783 107.153 12.8719 107.153 11.7102C106.711 11.7102 106.268 11.7102 105.881 11.7102C105.881 11.3229 105.881 10.9357 105.881 10.6038C106.323 10.6038 106.711 10.6038 107.153 10.6038C107.319 9.71868 107.319 8.83358 107.43 8.05911ZM48.7915 10.2719C49.1787 10.2719 49.6212 10.2719 50.0085 10.3825C50.8936 10.6591 51.668 11.3229 52.1106 12.0974C52.4978 12.8166 52.7744 13.591 52.8298 14.4208C52.8851 15.5272 52.9404 16.6336 52.5532 17.6846C52.2212 18.6804 51.5574 19.5655 50.617 20.0634C49.6766 20.5612 48.5702 20.6166 47.5744 20.34C46.6893 20.1187 45.9149 19.5102 45.3617 18.7357C44.8085 17.9059 44.5872 16.9102 44.5872 15.8591C44.5872 14.9187 44.5319 13.9229 44.8638 12.9825C45.1404 12.0974 45.7489 11.2676 46.5787 10.7144C46.9659 10.4932 47.3532 10.2719 47.7957 10.2166C48.1276 10.2719 48.4595 10.2719 48.7915 10.2719ZM48.017 11.5442C47.5191 11.6549 47.0212 11.9868 46.7446 12.4293C46.3574 13.0932 46.2468 13.8676 46.2468 14.6421C46.1915 15.1953 46.2468 15.7485 46.3021 16.3017C46.4127 16.9655 46.5234 17.6846 46.8553 18.2932C47.1872 18.957 47.9063 19.2336 48.6255 19.2889C49.2893 19.3442 50.0085 19.1783 50.5063 18.6251C50.8936 18.1825 51.1149 17.6846 51.1702 17.0761C51.2808 16.357 51.2808 15.6378 51.2255 14.974C51.2255 14.2549 51.1149 13.4804 50.8383 12.7612C50.6723 12.3187 50.3404 11.9868 49.9532 11.7655C49.3446 11.4336 48.6808 11.3783 48.017 11.5442ZM55.5404 10.6038C55.9829 10.4378 56.4255 10.3272 56.9234 10.2719C57.0893 10.7144 57.2 11.157 57.2553 11.6549C57.5872 11.4889 57.8085 11.2123 58.1404 11.0463C58.8042 10.5485 59.634 10.2719 60.4638 10.2719C60.6298 10.2719 60.851 10.3272 61.017 10.4378C61.2936 10.6038 61.5702 10.7144 61.8468 10.9357C62.068 11.157 62.234 11.4889 62.4 11.7655C62.7872 11.5995 63.0638 11.2676 63.3957 11.0463C63.9489 10.6591 64.6127 10.3272 65.3872 10.2719C66.051 10.2166 66.7149 10.4378 67.2127 10.8804C67.434 11.1017 67.6553 11.3229 67.7659 11.5995C67.8766 11.8761 67.9319 12.1527 67.9319 12.4846C68.0425 14.0336 67.9872 15.6378 68.0425 17.1868C68.0425 18.2378 68.0425 19.2889 68.0425 20.34C67.5446 20.34 66.9914 20.34 66.4936 20.34C66.4936 18.791 66.4936 17.1868 66.4936 15.6378C66.4936 14.6421 66.4936 13.6463 66.4383 12.5953C66.3829 12.2634 66.217 11.9868 65.9404 11.7655C65.6638 11.5995 65.2766 11.5995 64.8893 11.5995C64.2808 11.6549 63.7829 12.0421 63.2851 12.4293C63.0638 12.5953 62.8425 12.8166 62.6212 12.9825C62.5659 13.0378 62.5659 13.1485 62.5659 13.2038C62.5659 15.5825 62.5659 17.9059 62.5659 20.2846C62.068 20.2846 61.5149 20.2846 61.017 20.2846V14.7527C61.017 14.3102 61.017 13.8676 61.017 13.4251C61.017 12.9825 61.017 12.4846 60.851 12.0974C60.5191 11.6549 59.9106 11.5442 59.4127 11.7102C58.6383 11.8761 57.9744 12.374 57.3659 12.9272C57.2553 12.9825 57.2553 13.0932 57.2553 13.2038C57.2553 15.5825 57.2553 17.9612 57.2553 20.34C56.8127 20.34 56.3702 20.34 55.9276 20.34C55.8723 17.9059 55.9276 15.4719 55.817 13.0378C55.817 12.4846 55.817 11.9314 55.7063 11.3783C55.651 11.1017 55.5404 10.8251 55.5404 10.6038ZM81.9276 10.5485C82.4255 10.4932 82.9234 10.3825 83.4212 10.2719C83.4766 11.6549 83.4766 13.0378 83.4766 14.3655C83.4766 16.357 83.4766 18.2932 83.4766 20.2846C82.9787 20.2846 82.4255 20.2846 81.9276 20.2846C81.9276 17.4634 81.9276 14.6421 81.9276 11.8208C81.9276 11.4336 81.8723 10.9357 81.9276 10.5485ZM101.787 10.3272C102.838 10.4932 103.723 11.4889 103.779 12.5953C103.834 14.1995 103.779 15.8591 103.779 17.4634V17.9612C103.779 18.2932 103.779 18.6251 103.889 18.9017C103.945 19.2336 104.277 19.3995 104.498 19.5655C104.277 19.8421 104.111 20.2293 103.834 20.4506C103.668 20.6166 103.447 20.4506 103.336 20.34C102.949 20.0634 102.728 19.6761 102.506 19.2336C102.174 19.3995 101.953 19.7314 101.566 19.8974C101.013 20.2846 100.349 20.4506 99.6297 20.4506C99.0212 20.4506 98.4127 20.34 97.8595 20.0634C96.9744 19.5655 96.4766 18.5697 96.5319 17.574C96.5319 16.6336 97.0297 15.6932 97.7489 15.14C98.634 14.4761 99.7957 14.2549 100.902 14.1442C101.4 14.0889 101.898 14.0889 102.451 14.0889C102.451 13.591 102.451 13.0932 102.34 12.5953C102.285 12.208 102.064 11.7655 101.677 11.5442C101.234 11.3229 100.681 11.2676 100.183 11.3783C99.2425 11.4889 98.3574 11.8761 97.5829 12.4293C97.3617 12.1527 97.1404 11.8761 96.9744 11.5442C96.8638 11.3783 97.0297 11.2676 97.1404 11.2123C98.1914 10.6591 99.2978 10.1612 100.515 10.1612H101.013C101.289 10.2719 101.511 10.2719 101.787 10.3272ZM101.123 15.2506C100.625 15.3059 100.183 15.3059 99.6851 15.4166C99.1319 15.5825 98.634 15.9144 98.3021 16.4123C98.1361 16.6889 98.1361 17.0208 98.1361 17.3527C98.1361 17.6846 98.0808 18.0719 98.2468 18.4038C98.3574 18.7357 98.634 19.0676 98.9659 19.1783C99.3531 19.3442 99.7957 19.3442 100.238 19.3442C100.736 19.2889 101.179 19.0123 101.566 18.6804C101.898 18.4038 102.23 18.0719 102.23 17.6293C102.285 16.8549 102.285 16.0251 102.285 15.2506C101.898 15.3059 101.511 15.1953 101.123 15.2506ZM117.94 10.3825C118.825 10.6038 119.6 11.157 120.153 11.8761C120.596 12.4846 120.872 13.1485 120.983 13.8676C121.094 14.5314 121.149 15.2506 121.094 15.9697C121.094 17.1314 120.706 18.2378 120.043 19.1229C119.489 19.8421 118.604 20.2846 117.774 20.4506C116.723 20.6166 115.562 20.4506 114.621 19.7868C113.847 19.2336 113.349 18.3485 113.072 17.408C112.906 16.9102 112.906 16.4676 112.851 15.9697C112.851 15.14 112.851 14.3655 112.962 13.5357C113.183 12.6506 113.625 11.7655 114.289 11.1017C114.787 10.6038 115.451 10.3272 116.115 10.2166C116.779 10.2166 117.387 10.2719 117.94 10.3825ZM116.281 11.5442C115.562 11.6549 114.953 12.208 114.732 12.8719C114.455 13.591 114.455 14.3655 114.455 15.0846C114.455 15.8038 114.455 16.5229 114.621 17.1868C114.732 17.6846 114.843 18.1272 115.174 18.5144C115.451 18.9017 115.949 19.1229 116.391 19.1783C116.557 19.2336 116.779 19.2336 116.945 19.2336H117.111H117.277C117.664 19.1783 117.996 19.0676 118.328 18.9017C118.715 18.6804 118.991 18.2932 119.157 17.8506C119.323 17.3527 119.379 16.7995 119.434 16.3017C119.434 15.6932 119.489 15.0846 119.434 14.4208C119.379 13.757 119.323 13.0932 118.991 12.54C118.715 12.0974 118.328 11.7655 117.83 11.5442C117.332 11.4336 116.779 11.4336 116.281 11.5442ZM123.749 10.6591C124.247 10.5485 124.689 10.3825 125.132 10.2719C125.408 10.7697 125.408 11.3229 125.464 11.8208C125.685 11.6549 125.906 11.4336 126.128 11.2123C126.791 10.5485 127.787 10.1612 128.728 10.3272V10.4378C128.506 10.8804 128.396 11.3783 128.174 11.8761C128.174 11.9868 128.008 11.9314 127.953 11.9314C127.566 11.9314 127.068 11.9314 126.736 12.1527C126.349 12.374 126.072 12.6506 125.796 12.9825C125.519 13.3144 125.574 13.757 125.574 14.1442C125.574 14.6974 125.519 15.2506 125.574 15.8038C125.574 17.2974 125.574 18.8463 125.574 20.34C125.077 20.34 124.523 20.34 124.025 20.34C124.025 18.6804 124.025 16.9655 124.025 15.3059C124.025 14.1442 124.025 13.0378 123.97 11.8761C123.915 11.4336 123.804 11.0463 123.749 10.6591ZM86.4638 10.6591C86.9063 10.4932 87.4042 10.3272 87.8468 10.3272C88.0127 10.7697 88.1234 11.2676 88.1787 11.7102C88.5659 11.4336 88.9531 11.1017 89.3404 10.8804C90.1702 10.3825 91.1659 10.0506 92.051 10.3825C92.6042 10.5485 93.1021 10.8804 93.434 11.3783C93.7106 11.7102 93.7659 12.208 93.8212 12.5953C93.9319 14.1442 93.8766 15.6378 93.8766 17.1868C93.8766 18.2378 93.8766 19.2336 93.8766 20.2293C93.3787 20.2293 92.8255 20.2293 92.3276 20.2293C92.3276 18.5697 92.2723 16.8549 92.2723 15.1953C92.2723 14.2549 92.2723 13.3144 92.1617 12.374C91.9957 11.9314 91.6085 11.5442 91.1106 11.5442C90.7787 11.5442 90.3914 11.5442 90.0595 11.6549C89.3404 11.9314 88.6766 12.374 88.068 12.8719C88.068 15.3059 88.068 17.7953 88.068 20.2293C87.6255 20.2293 87.1829 20.2293 86.7404 20.2293C86.7404 18.8463 86.6851 17.4634 86.6851 16.0251C86.6851 14.5868 86.6851 13.1485 86.5744 11.7102C86.6851 11.4336 86.5744 11.0463 86.4638 10.6591Z" fill="#2E2E3A"/>
</g>
<defs>
<clipPath id="clip0_55_33566">
<rect width="128.672" height="26" fill="white" transform="translate(0 0.8125)"/>
</clipPath>
</defs>
</svg>
