<svg width="40" height="40" viewBox="0 0 40 40" fill="none" xmlns="http://www.w3.org/2000/svg">
<path fill-rule="evenodd" clip-rule="evenodd" d="M20 30.625C25.868 30.625 30.625 25.868 30.625 20C30.625 14.132 25.868 9.375 20 9.375C14.132 9.375 9.375 14.132 9.375 20C9.375 25.868 14.132 30.625 20 30.625ZM20 32.5C26.9036 32.5 32.5 26.9036 32.5 20C32.5 13.0964 26.9036 7.5 20 7.5C13.0964 7.5 7.5 13.0964 7.5 20C7.5 26.9036 13.0964 32.5 20 32.5Z" fill="#2F2D2E"/>
<path fill-rule="evenodd" clip-rule="evenodd" d="M20 34.375C27.9391 34.375 34.375 27.9391 34.375 20C34.375 12.0609 27.9391 5.625 20 5.625C12.0609 5.625 5.625 12.0609 5.625 20C5.625 27.9391 12.0609 34.375 20 34.375ZM20 36.25C28.9746 36.25 36.25 28.9746 36.25 20C36.25 11.0254 28.9746 3.75 20 3.75C11.0254 3.75 3.75 11.0254 3.75 20C3.75 28.9746 11.0254 36.25 20 36.25Z" fill="#2F2D2E"/>
<path fill-rule="evenodd" clip-rule="evenodd" d="M20 38.125C30.0102 38.125 38.125 30.0102 38.125 20C38.125 9.98984 30.0102 1.875 20 1.875C9.98984 1.875 1.875 9.98984 1.875 20C1.875 30.0102 9.98984 38.125 20 38.125ZM20 40C31.0457 40 40 31.0457 40 20C40 8.95431 31.0457 0 20 0C8.95431 0 0 8.95431 0 20C0 31.0457 8.95431 40 20 40Z" fill="#2F2D2E"/>
</svg>
