<svg width="107" height="19" viewBox="0 0 107 19" fill="none" xmlns="http://www.w3.org/2000/svg">
<g clip-path="url(#clip0_55_33746)">
<mask id="mask0_55_33746" style="mask-type:luminance" maskUnits="userSpaceOnUse" x="0" y="0" width="107" height="19">
<path d="M106.422 0.875H0.672363V18.875H106.422V0.875Z" fill="white"/>
</mask>
<g mask="url(#mask0_55_33746)">
<path d="M10.9939 12.1335H4.62617V9.51842H10.9939C12.096 9.51842 12.6996 10.0448 12.6996 10.826C12.6996 11.6071 12.096 12.1335 10.9939 12.1335ZM4.62617 4.11842H10.6178C11.7374 4.11842 12.3672 4.54295 12.3672 5.34106C12.3672 6.14767 11.7461 6.56371 10.6178 6.56371H4.62617V4.11842ZM14.1778 7.87125C15.0962 7.44672 16.2158 6.44484 16.2158 4.8571C16.2158 2.30993 14.344 0.925971 11.0376 0.91748H0.716309V15.3429H11.3875C14.7201 15.3429 16.6269 13.8146 16.6269 11.2675C16.6357 9.56088 15.5073 8.39767 14.1778 7.87125Z" fill="#F7F7FF"/>
<path d="M47.101 12.3372C45.8939 12.3372 45.3341 11.9381 45.3341 10.9702V7.83717H49.6638V4.73811H45.3341V1.92773H41.4417V4.73811H40.777H36.4472V1.92773H32.5549V4.73811H30.2632V7.83717H32.5549V12.0315C32.5549 14.4598 34.4267 15.5466 37.0245 15.5466C38.8964 15.5466 40.2871 15.224 41.3105 14.8419L40.5845 11.9041C39.8585 12.1674 39.0276 12.3287 38.2141 12.3287C37.007 12.3287 36.4472 11.9296 36.4472 10.9617V7.83717H39.1588H41.4505V12.0315C41.4505 14.4598 43.3223 15.5466 45.9201 15.5466C47.792 15.5466 49.1827 15.224 50.2061 14.8419L49.4801 11.9126C48.7454 12.1758 47.9144 12.3372 47.101 12.3372Z" fill="#F7F7FF"/>
<path d="M67.5688 6.51288V4.74684H63.6152V15.3515H67.5688V11.3355C67.5688 9.08552 69.1695 8.2959 71.3562 8.30439C71.9598 8.30439 72.2309 8.34684 72.7295 8.42326V4.77231C72.3796 4.72986 72.021 4.6959 71.5224 4.6959C69.7293 4.68741 68.5222 5.2308 67.5688 6.51288Z" fill="#F7F7FF"/>
<path d="M85.0277 8.54182C85.0277 10.8513 83.7769 12.1588 81.1791 12.1588C78.5813 12.1588 77.3304 10.8513 77.3304 8.54182V0.925781H73.2544V8.9239C73.2544 13.0673 76.0621 15.572 81.1791 15.572C86.296 15.572 89.1037 13.0588 89.1037 8.9239V0.925781H85.0277V8.54182Z" fill="#F7F7FF"/>
<path d="M96.4073 12.5663C94.7804 12.5663 93.4946 11.556 93.4946 10.1126V9.99369C93.4946 8.55031 94.7891 7.53992 96.4073 7.53992C98.008 7.53992 99.3375 8.42294 99.3375 10.0446C99.3375 11.6748 98.008 12.5663 96.4073 12.5663ZM97.3607 4.50879C95.6376 4.50879 94.2818 5.11163 93.5908 5.8588V4.75502H89.6372V18.8324H93.5908V14.256C94.2818 15.0031 95.6288 15.606 97.352 15.606C101.078 15.606 103.221 13.1182 103.221 10.0616C103.23 7.00501 101.087 4.50879 97.3607 4.50879Z" fill="#F7F7FF"/>
<path d="M26.432 11.3269L30.0532 12.3543C29.1873 14.4005 26.6157 15.5892 23.7992 15.5892C19.7669 15.5892 16.9854 13.3222 16.9854 10.0278C16.9854 6.85238 19.8019 4.50049 23.7555 4.50049C27.9365 4.50049 30.2107 7.04766 30.2107 10.0448V10.9703H20.8865C21.2626 12.0571 22.3122 12.6599 23.7817 12.6599C24.9625 12.6514 25.9947 12.1929 26.432 11.3269ZM20.9477 8.87312H26.2046C26.0821 8.15142 25.1899 7.34482 23.6767 7.34482C22.4522 7.35331 21.4025 7.85425 20.9477 8.87312Z" fill="#F7F7FF"/>
<path d="M59.2855 11.3269L62.9067 12.3543C62.0408 14.4005 59.4692 15.5892 56.6527 15.5892C52.6204 15.5892 49.8389 13.3222 49.8389 10.0278C49.8389 6.85238 52.6554 4.50049 56.609 4.50049C60.79 4.50049 63.0642 7.04766 63.0642 10.0448V10.9703H53.74C54.1161 12.0571 55.1657 12.6599 56.6352 12.6599C57.816 12.6514 58.8482 12.1929 59.2855 11.3269ZM53.8012 8.87312H59.0581C58.9356 8.15142 58.0435 7.34482 56.5302 7.34482C55.3144 7.35331 54.2561 7.85425 53.8012 8.87312Z" fill="#F7F7FF"/>
<path d="M106.421 2.41825C106.421 3.28323 105.732 3.91169 104.882 3.91169C104.033 3.91169 103.344 3.28323 103.344 2.41825C103.344 1.55327 104.033 0.924805 104.882 0.924805C105.732 0.924805 106.421 1.55327 106.421 2.41825ZM106.184 2.41825C106.184 1.68166 105.606 1.13429 104.882 1.13429C104.158 1.13429 103.58 1.68166 103.58 2.41825C103.58 3.14808 104.158 3.7022 104.882 3.7022C105.606 3.7022 106.184 3.14808 106.184 2.41825ZM105.648 3.14808H105.16L104.847 2.64801H104.638V3.14808H104.2V1.64112H104.951C105.335 1.64112 105.572 1.81006 105.572 2.12767C105.572 2.36418 105.405 2.47907 105.251 2.53989L105.648 3.14808ZM105.118 2.16145C105.118 2.03982 105.021 1.98576 104.889 1.98576H104.638V2.33716H104.889C105.021 2.33716 105.118 2.2831 105.118 2.16145Z" fill="#F7F7FF"/>
</g>
</g>
<defs>
<clipPath id="clip0_55_33746">
<rect width="105.75" height="18" fill="white" transform="translate(0.672363 0.875)"/>
</clipPath>
</defs>
</svg>
