<svg width="80" height="27" viewBox="0 0 80 27" fill="none" xmlns="http://www.w3.org/2000/svg">
<g clip-path="url(#clip0_55_33777)">
<path fill-rule="evenodd" clip-rule="evenodd" d="M0.739444 10.6637C0.609753 9.97825 0.554199 9.18173 0.554199 8.31089H2.81428C2.81428 10.0524 2.99952 12.331 5.35212 12.331C7.44534 12.331 7.74169 10.497 7.74169 8.66297V1.1416L10.0017 1.16018V8.62581C10.0017 9.57059 9.90906 10.7378 9.66824 11.5159C9.11254 13.387 7.48229 14.3504 5.37051 14.3504C2.53632 14.3504 1.16548 12.9054 0.739444 10.6637Z" fill="#F7F7FF"/>
<path fill-rule="evenodd" clip-rule="evenodd" d="M17.4905 12.9423C17.2126 13.5166 15.8048 14.3502 14.4525 14.3502C12.526 14.3502 11.3218 13.3313 11.3218 11.5343C11.3218 9.6261 12.8595 8.84816 14.2673 8.64433C14.545 8.58881 15.286 8.51466 15.9714 8.42214L17.2867 8.23668C17.2867 7.77366 17.2311 6.51396 15.527 6.51396C14.4895 6.51396 13.8412 6.9214 13.7671 7.79224H11.6183C11.7109 6.10631 12.915 4.79102 15.4713 4.79102C17.7499 4.79102 19.3059 5.56916 19.3059 7.88481V11.627C19.3059 12.2197 19.454 12.4976 20.1766 12.4976V14.1095C19.0835 14.3502 17.6943 14.2206 17.4905 12.9423ZM14.7303 10.2004C14.0448 10.4043 13.7671 10.7006 13.6188 11.0157C13.2669 11.8122 13.8041 12.6643 14.7119 12.6643C16.1939 12.6643 17.2867 11.664 17.2867 10.5339V9.73742C16.5829 9.82993 15.3787 9.99682 14.7303 10.2004Z" fill="#F7F7FF"/>
<path fill-rule="evenodd" clip-rule="evenodd" d="M26.1054 4.80957C27.8468 4.80957 29.1621 5.77297 29.1621 7.90337V14.1095H27.0317V8.08857C27.0317 7.27347 26.5315 6.51395 25.5683 6.51395C24.4569 6.51395 23.4749 7.29205 23.4749 8.81115V14.1095H21.3447V5.032H23.4565V6.16204C23.7529 5.3653 24.9754 4.80957 26.1054 4.80957Z" fill="#F7F7FF"/>
<path fill-rule="evenodd" clip-rule="evenodd" d="M33.811 14.3316C32.0697 14.3316 30.7544 13.3682 30.7544 11.2379V5.03174H32.8848V11.0526C32.8848 11.8677 33.3849 12.6272 34.3481 12.6272C35.4596 12.6087 36.386 11.8863 36.386 10.3302V5.03174H38.5162V14.1094H36.4044V12.9792C36.108 13.7759 34.978 14.3316 33.811 14.3316Z" fill="#F7F7FF"/>
<path fill-rule="evenodd" clip-rule="evenodd" d="M46.0379 12.9423C45.76 13.5166 44.3521 14.3502 42.9999 14.3502C41.0734 14.3502 39.8691 13.3313 39.8691 11.5343C39.8691 9.6261 41.4069 8.84816 42.8147 8.64433C43.0924 8.58881 43.8334 8.51466 44.5188 8.42214L45.8341 8.23668C45.8341 7.77366 45.7786 6.51396 44.0744 6.51396C43.0369 6.51396 42.3886 6.9214 42.3145 7.79224H40.1657C40.2582 6.10631 41.4625 4.79102 44.0188 4.79102C46.2973 4.79102 47.8534 5.56916 47.8534 7.88481V11.627C47.8534 12.2197 48.0015 12.4976 48.724 12.4976V14.1095C47.631 14.3502 46.2417 14.2206 46.0379 12.9423ZM43.2776 10.2004C42.5923 10.4043 42.3145 10.7006 42.1662 11.0157C41.8143 11.8122 42.3514 12.6643 43.2593 12.6643C44.7412 12.6643 45.8341 11.664 45.8341 10.5339V9.73742C45.1303 9.82993 43.9261 9.99682 43.2776 10.2004Z" fill="#F7F7FF"/>
<path fill-rule="evenodd" clip-rule="evenodd" d="M52.0351 5.88401C52.6094 5.1986 53.2021 4.82812 54.0914 4.82812C54.6655 4.82812 55.2397 4.9578 55.7028 5.25415L55.1286 7.32898C54.6655 7.01405 54.221 6.8658 53.795 6.8658C52.9058 6.8658 52.0537 7.49587 52.0537 8.92224V14.1094H49.9233V4.99479H52.0351V5.88401Z" fill="#F7F7FF"/>
<path fill-rule="evenodd" clip-rule="evenodd" d="M62.4901 5.03174H64.7499L63.0826 10.0706L61.3044 15.3875C61.0081 16.2026 60.1929 17.9069 58.2293 17.9069C57.933 17.9069 57.6367 17.8883 57.4141 17.8328L57.0436 17.7587V15.8135C57.0994 15.8321 57.1736 15.8691 57.2662 15.8877C57.4141 15.9246 57.5994 15.9432 57.8404 15.9432C58.1925 15.9432 58.6556 15.7766 58.9335 15.4616C59.1371 15.2209 59.304 14.8502 59.3966 14.5724L59.5445 14.0723L56.3584 5.03174H58.6924L60.5818 11.4601L62.4901 5.03174Z" fill="#F7F7FF"/>
<path fill-rule="evenodd" clip-rule="evenodd" d="M67.9194 14.0968H79.1298V12.1777H67.9194V14.0968Z" fill="#F7F7FF"/>
<path fill-rule="evenodd" clip-rule="evenodd" d="M64.8267 26.5724H66.7458V15.4419H64.8267V26.5724Z" fill="#F7F7FF"/>
</g>
<defs>
<clipPath id="clip0_55_33777">
<rect width="79.0833" height="26" fill="white" transform="translate(0.4375 0.875)"/>
</clipPath>
</defs>
</svg>
