<svg width="171" height="19" viewBox="0 0 171 19" fill="none" xmlns="http://www.w3.org/2000/svg">
<g clip-path="url(#clip0_55_33592)">
<mask id="mask0_55_33592" style="mask-type:luminance" maskUnits="userSpaceOnUse" x="0" y="0" width="17" height="19">
<path d="M16.1499 0.8125H0.337402V18.8125H16.1499V0.8125Z" fill="white"/>
</mask>
<g mask="url(#mask0_55_33592)">
<mask id="mask1_55_33592" style="mask-type:luminance" maskUnits="userSpaceOnUse" x="0" y="0" width="17" height="19">
<path d="M16.1499 0.8125H0.337402V18.8125H16.1499V0.8125Z" fill="white"/>
</mask>
<g mask="url(#mask1_55_33592)">
<path fill-rule="evenodd" clip-rule="evenodd" d="M8.41306 18.8091C10.9137 18.4632 16.1499 12.9462 16.1499 8.71844C16.1499 7.97931 16.0476 7.26437 15.8562 6.58544L12.16 10.2507C12.1843 10.3114 12.1973 10.3778 12.1973 10.447C12.1973 10.7423 11.9562 10.9814 11.6586 10.9814C11.5885 10.9814 11.5219 10.9679 11.4603 10.9442L8.70899 13.6724C8.71237 13.6966 8.71405 13.7213 8.71405 13.7466C8.71405 13.957 8.59098 14.1393 8.4125 14.2264V18.8091H8.41306ZM7.96126 18.8125C5.42055 18.5026 0.337402 12.9614 0.337402 8.71844C0.337402 8.01306 0.427194 7.32906 0.596048 6.67825L5.89154 11.9286C5.87461 11.9804 5.86555 12.0361 5.86555 12.0934C5.86555 12.3888 6.1067 12.6278 6.40432 12.6278C6.46248 12.6278 6.51839 12.6188 6.57037 12.6019L7.64221 13.6651C7.63827 13.6915 7.63597 13.7185 7.63597 13.7461C7.63597 13.9654 7.76984 14.1544 7.9607 14.2366L7.96126 18.8125ZM0.740621 6.18662L6.19934 11.599C6.26257 11.5731 6.33147 11.5591 6.40432 11.5591C6.70193 11.5591 6.94308 11.7981 6.94308 12.0934C6.94308 12.1654 6.92896 12.2341 6.90297 12.2965L7.90085 13.2859C7.92003 13.2747 7.94039 13.2646 7.96126 13.2556V8.03162C7.76247 7.95287 7.62247 7.7605 7.62247 7.5355C7.62247 7.486 7.62922 7.43762 7.64221 7.39206L5.86387 5.62863C5.81532 5.64325 5.76335 5.65056 5.70968 5.65056C5.41208 5.65056 5.17094 5.4115 5.17094 5.11619C5.17094 5.06331 5.17885 5.01213 5.19353 4.96375L2.98148 2.77113C1.95931 3.679 1.17998 4.85294 0.740621 6.18662ZM3.32879 2.48031L5.4934 4.62681C5.55947 4.59813 5.6329 4.58181 5.70968 4.58181C6.0073 4.58181 6.24845 4.82088 6.24845 5.11619C6.24845 5.19269 6.23264 5.26469 6.20328 5.3305L7.93645 7.0495C7.94433 7.04556 7.95282 7.04219 7.9607 7.03881V0.815312C6.19878 0.861438 4.60056 1.47569 3.32822 2.48031H3.32879ZM8.15498 0.8125H8.19734C8.18997 0.8125 8.18322 0.8125 8.17585 0.8125C8.16854 0.8125 8.16173 0.8125 8.15442 0.8125H8.15498ZM8.41306 0.815875V7.06244C8.42099 7.06638 8.4283 7.07088 8.43567 7.07481L13.0721 2.47806C11.7788 1.47906 10.1671 0.8665 8.41306 0.815875ZM13.4228 2.76494L8.69375 7.45337C8.69768 7.47981 8.69993 7.50738 8.69993 7.53494C8.69993 7.74025 8.58361 7.918 8.4125 8.008V13.2662C8.42718 13.2736 8.44073 13.2809 8.45429 13.2893L11.1475 10.6191C11.1289 10.5651 11.1187 10.5072 11.1187 10.447C11.1187 10.1517 11.3598 9.91262 11.6574 9.91262C11.7179 9.91262 11.7766 9.92275 11.8308 9.94075L15.702 6.10281C15.2418 4.80119 14.4478 3.65481 13.4222 2.7655L13.4228 2.76494Z" fill="#2E2E3A"/>
<path d="M10.9414 1.30127C10.955 1.30633 10.9679 1.31139 10.9815 1.31589C11.0239 1.33164 11.0662 1.34796 11.1086 1.36427C11.1317 1.37327 11.1543 1.38227 11.1769 1.39127C11.2204 1.40871 11.2633 1.42671 11.3062 1.44471C11.335 1.45652 11.3633 1.4689 11.3915 1.48127C11.4321 1.49927 11.4728 1.51727 11.5135 1.53583C11.5411 1.54821 11.5682 1.56115 11.5954 1.57408C11.6247 1.58815 11.6546 1.60221 11.684 1.61683C11.7122 1.63033 11.7405 1.6444 11.7687 1.65846C11.8161 1.68208 11.8631 1.70627 11.9099 1.73102C11.9421 1.7479 11.9737 1.76533 12.0059 1.78277C12.0274 1.79458 12.0488 1.80583 12.0697 1.81765C12.1031 1.83621 12.1369 1.85533 12.1702 1.87446C12.1855 1.8829 12.2002 1.8919 12.2154 1.9009C12.2854 1.94196 12.3549 1.98358 12.4232 2.02633C12.4317 2.0314 12.4402 2.03646 12.4487 2.04208C12.4865 2.06571 12.5243 2.0899 12.5616 2.11465C12.5712 2.12083 12.5808 2.12702 12.5904 2.13321C12.7118 2.21308 12.8304 2.29633 12.9468 2.3824L12.9535 2.38746C12.9936 2.41727 13.0337 2.44765 13.0733 2.47802L8.43681 7.07532C8.42944 7.07082 8.42157 7.06688 8.4142 7.06295V3.4219C9.25339 2.67883 10.096 1.97233 10.9425 1.30127H10.9414ZM6.19935 11.5989C6.26258 11.5731 6.33149 11.559 6.40433 11.559C6.70195 11.559 6.94309 11.7981 6.94309 12.0934C6.94309 12.1654 6.92897 12.234 6.90299 12.2964L7.90086 13.2859C7.9201 13.2746 7.9404 13.2645 7.96133 13.2555V8.03157C7.76254 7.95282 7.62248 7.76045 7.62248 7.53545C7.62248 7.48595 7.62923 7.43757 7.64222 7.39201L5.9514 5.71521C5.01962 6.62645 4.0912 7.58382 3.16391 8.58901L6.19935 11.5989ZM7.84894 14.1696C7.72019 14.0717 7.6366 13.9187 7.6366 13.746C7.6366 13.7184 7.63885 13.6914 7.64279 13.665L6.57094 12.6019C6.5184 12.6188 6.46249 12.6278 6.40489 12.6278C6.10727 12.6278 5.86613 12.3887 5.86613 12.0934C5.86613 12.036 5.87519 11.9803 5.89212 11.9286L2.85952 8.92145C2.1841 9.66226 1.50925 10.4278 0.834961 11.2198C1.85882 14.0053 4.27756 16.8128 6.28069 18.0941C6.77704 16.7751 7.30281 15.4588 7.85007 14.1701L7.84894 14.1696ZM7.96133 7.03876V3.82577C7.3977 4.33427 6.83582 4.85908 6.27445 5.40077L7.93703 7.04888C7.9449 7.04495 7.9534 7.04157 7.96133 7.03876ZM13.4228 2.7649L8.69376 7.45332C8.6977 7.47976 8.69995 7.50732 8.69995 7.53488C8.69995 7.7402 8.58362 7.91795 8.41251 8.00795V12.8685C10.0937 9.07501 11.9556 5.60721 13.8323 3.1474C13.7001 3.01521 13.564 2.88752 13.4228 2.7649Z" fill="#2E2E3A"/>
<path d="M8.4131 12.8686C10.0943 9.07509 11.9562 5.60727 13.8328 3.14746C14.0525 3.36684 14.2598 3.59859 14.4523 3.84271C13.4799 5.59996 12.4007 7.6334 11.448 9.9554C11.2548 10.037 11.1193 10.2265 11.1193 10.4476C11.1193 10.5078 11.1295 10.5657 11.1481 10.6197L8.4549 13.2899C8.44134 13.2815 8.42722 13.2741 8.4131 13.2668V12.8686ZM7.9613 18.7985V14.2366C7.92063 14.2191 7.8834 14.1961 7.84892 14.1696C7.30172 15.4583 6.77651 16.7746 6.27954 18.0936C6.89733 18.4891 7.47564 18.7388 7.9613 18.7985ZM9.08287 18.6078C9.42791 16.0383 10.0587 13.6983 10.8228 11.5765L8.7096 13.6718C8.71297 13.696 8.71466 13.7208 8.71466 13.7461C8.71466 13.9565 8.59153 14.1387 8.4131 14.2259V18.7945C8.6192 18.7658 8.84398 18.7028 9.08287 18.6078Z" fill="#2E2E3A"/>
</g>
</g>
<path d="M85.009 9.41854H84.9055V10.359H89.9567V9.41854H85.009ZM155.526 3.84304H154.608L148.992 16.2293H150.023L155.06 5.03779L158.154 11.8215H154.079L153.598 12.762H158.579L160.163 16.2293H161.194L155.526 3.84304ZM115.706 15.3045V3.84304H114.765V16.2293H121.124V15.3068H115.706V15.3045ZM44.6822 3.84304V9.55804H38.7084V10.4805H44.6822V16.2293H45.6227V3.84304H44.6822ZM27.1772 6.82204V16.2293H28.1177V6.82204H27.1772ZM23.0664 3.84304V4.76779H32.2284V3.84304H23.0664ZM164.785 15.3068V3.84304H163.844V16.2293H170.203V15.3068H164.785ZM35.7092 3.84304V16.2293H36.6497V3.84304H35.7092ZM78.2522 3.84304L73.1335 14.5733L68.0147 3.84304H67.018L72.931 16.2293H73.3382L79.249 3.84304H78.2522ZM82.849 15.3045V4.76779H89.9725V3.84304H81.9085V16.2293H90.1997V15.3068H82.849V15.3045ZM109.921 5.69929C108.755 4.47304 107.158 3.80029 105.425 3.80029C101.987 3.80029 99.1907 6.59704 99.1907 10.0373C99.1907 13.4775 101.987 16.2743 105.425 16.2743C108.863 16.2743 111.662 13.4775 111.662 10.0373V9.41854H105.322V10.3073H110.756C110.612 13.1715 108.305 15.3855 105.425 15.3855C102.545 15.3855 100.088 13.0388 100.088 10.0373C100.088 7.03579 102.433 4.68904 105.425 4.68904C106.901 4.68904 108.272 5.26729 109.264 6.28879L109.919 5.69929H109.921ZM63.2425 3.84304V16.2293H64.183V3.84304H63.2425ZM55.2099 12.2783H55.4597C57.8582 12.2783 59.8135 10.3883 59.8135 8.05954C59.8135 5.73079 57.8582 3.84304 55.4619 3.84304H50.0889V16.2293H51.0047V4.74079H55.4619C57.361 4.74079 58.9 6.23479 58.9 8.06179C58.9 9.88879 57.361 11.3828 55.4619 11.3828H52.6202L58.8302 16.2293H60.349L55.2099 12.2805V12.2783ZM128.515 15.3203C125.522 15.3203 123.063 12.942 123.063 10.0238C123.063 7.10554 125.52 4.74529 128.515 4.74529C131.51 4.74529 133.967 7.10554 133.967 10.0238C133.967 12.942 131.507 15.3203 128.515 15.3203ZM128.515 3.82729C124.978 3.82729 122.105 6.58804 122.105 10.0283C122.105 13.4685 124.976 16.2473 128.515 16.2473C132.054 16.2473 134.925 13.4685 134.925 10.0283C134.925 6.58804 132.054 3.82729 128.515 3.82729ZM144.672 9.74929C145.219 9.57154 145.667 9.28354 145.995 8.88979C146.414 8.38804 146.634 7.73329 146.634 6.96379C146.634 5.98504 146.27 5.20204 145.59 4.66204C144.915 4.12654 143.939 3.84529 142.73 3.84529H137.643V16.2293H142.764C144.155 16.2293 145.271 15.9255 146.045 15.3495C146.823 14.769 147.242 13.9185 147.242 12.852C147.242 11.9745 146.965 11.2343 146.438 10.683C146.004 10.2285 145.406 9.91129 144.672 9.74929ZM145.381 14.634C144.776 15.066 143.878 15.2978 142.715 15.2888H138.586V4.76779H142.715C143.675 4.76779 144.422 4.98379 144.924 5.37079C145.424 5.75554 145.694 6.32029 145.694 7.04929C145.694 7.77829 145.421 8.37004 144.924 8.75929C144.422 9.15079 143.678 9.36679 142.715 9.36679H140.642V10.2893H142.715C143.878 10.2893 144.778 10.5233 145.383 10.9463C145.984 11.3648 146.303 11.9768 146.303 12.7643C146.303 13.5518 145.982 14.2065 145.383 14.634H145.381Z" fill="#2E2E3A"/>
</g>
<defs>
<clipPath id="clip0_55_33592">
<rect width="170.438" height="18" fill="white" transform="translate(0 0.8125)"/>
</clipPath>
</defs>
</svg>
