<svg width="118" height="16" viewBox="0 0 118 16" fill="none" xmlns="http://www.w3.org/2000/svg">
<g clip-path="url(#clip0_55_33759)">
<path d="M25.5078 0.672517L32.3301 14.7886H29.8739L28.4194 11.6814H22.5801L21.1257 14.7886H18.6882L25.5078 0.672517ZM23.5632 9.59752H27.4364L25.5105 5.46984L23.5632 9.59752ZM35.1159 0.827874H37.3953V7.84573L43.54 0.827874H46.2534L40.0284 7.92609L46.848 14.7859H43.9793L37.3953 8.1993V14.7859H35.1159V0.827874ZM49.9685 0.827874H52.248V14.7859H49.9685V0.827874ZM92.898 9.35912V0.827874H95.1775V9.41805C95.1775 11.5797 96.5328 12.7797 98.5203 12.7797C100.505 12.7797 101.842 11.5797 101.842 9.41805V0.827874H104.121V9.35912C104.121 12.7984 101.802 14.9413 98.5176 14.9413C95.2364 14.9439 92.898 12.8011 92.898 9.35912ZM108.23 0.827874H112.398C115.288 0.827874 117.273 2.63591 117.273 5.27162C117.273 7.86716 115.288 9.71537 112.398 9.71537H110.51V14.7859H108.23V0.827874ZM112.299 7.59127C113.97 7.59127 114.953 6.66716 114.953 5.27162C114.953 3.87609 113.97 2.95198 112.299 2.95198H110.51V7.59127H112.299ZM0.0131836 0.793052H2.35158L5.96765 9.35644L9.65336 0.637695L13.323 9.30287L16.8641 0.793052H19.2239L13.4114 14.9091L9.65604 5.86627L5.90068 14.9091L0.0131836 0.793052ZM59.7239 5.96002V14.7859H57.4444V0.669838L66.4632 9.73145V0.825195H68.7427V14.9413L59.7239 5.96002ZM78.048 8.81002H82.473V12.035C81.6855 12.5279 80.6435 12.7823 79.623 12.7823C76.8694 12.7823 74.8069 10.5993 74.8069 7.80823C74.8069 5.01716 76.8721 2.83412 79.623 2.83412C80.8123 2.83412 81.9962 3.25198 82.8534 3.9618L84.4123 2.40287C83.156 1.25912 81.4578 0.669838 79.623 0.669838C75.6721 0.669838 72.4873 3.77698 72.4873 7.80555C72.4873 11.8341 75.6721 14.9413 79.623 14.9413C81.5891 14.9413 83.456 14.2716 84.7525 13.152V6.60555H78.956L78.048 8.81002Z" fill="#F7F7FF"/>
</g>
<defs>
<clipPath id="clip0_55_33759">
<rect width="117.321" height="15" fill="white" transform="translate(0 0.375)"/>
</clipPath>
</defs>
</svg>
