<svg width="129" height="27" viewBox="0 0 129 27" fill="none" xmlns="http://www.w3.org/2000/svg">
<g clip-path="url(#clip0_55_33738)">
<path d="M72.2467 6.01953C72.4679 6.01953 72.5233 6.29613 72.5233 6.5174C72.5786 7.40251 72.6339 8.2323 72.6339 9.1174C72.6892 9.94719 72.6892 10.777 72.6892 11.6068C73.1871 11.2195 73.6296 10.8323 74.1828 10.6663C75.0679 10.2791 76.119 10.2791 77.0041 10.7217C77.9445 11.2195 78.553 12.1046 78.885 13.0451C79.1616 13.9855 79.2722 14.9812 79.2169 15.9217C79.1062 17.0834 78.8296 18.1897 78.1658 19.1302C77.7786 19.6834 77.2807 20.1259 76.6169 20.3472C75.5658 20.7344 74.4594 20.5685 73.519 20.0153C73.2424 19.8493 72.9658 19.5727 72.7445 19.3515C72.6339 19.6834 72.5786 20.0153 72.4679 20.3472C71.9701 20.3472 71.5275 20.4025 71.0296 20.2919C71.1956 19.5174 71.1956 18.6876 71.2509 17.9132C71.3062 15.0919 71.2509 12.2706 71.2509 9.50464C71.1956 8.39826 71.2509 7.29187 71.085 6.24081C71.4169 6.13017 71.8594 6.01953 72.2467 6.01953ZM75.8977 11.828C75.4552 11.7174 75.0126 11.7174 74.6254 11.7727C73.8509 11.8834 73.2424 12.4366 72.7445 12.9897C72.7445 13.1557 72.7445 13.377 72.7445 13.5429V18.0238C72.7445 18.1897 72.8552 18.3004 72.9658 18.3557C73.7403 19.0749 74.8467 19.4068 75.8424 19.1855C76.3403 19.0749 76.7828 18.7429 77.0041 18.3004C77.3913 17.6919 77.502 16.9727 77.5573 16.2536C77.6126 15.7004 77.6679 15.1472 77.6126 14.6493C77.6126 14.0408 77.4467 13.377 77.1147 12.8238C76.8381 12.2706 76.3956 11.9387 75.8977 11.828ZM82.2594 6.40677C82.536 6.29613 82.9232 6.29613 83.1998 6.46208C83.4764 6.62804 83.6977 6.90464 83.8084 7.18123C83.9743 7.84506 83.4764 8.56421 82.8126 8.61953C82.3147 8.67485 81.7615 8.39826 81.5956 7.84506C81.3743 7.34719 81.7062 6.62804 82.2594 6.40677ZM36.5105 7.56847C37.2296 7.0706 38.1148 6.68336 38.9999 6.68336C39.9403 6.68336 40.8807 6.73868 41.7105 7.12591C42.0424 7.29187 42.3743 7.45783 42.7062 7.67911C42.485 8.06634 42.2084 8.34294 41.9318 8.67485C41.5999 8.50889 41.2679 8.28762 40.8807 8.12166C39.9956 7.78974 38.9445 7.73443 38.0594 8.12166C37.285 8.39826 36.6765 9.00677 36.2892 9.72592C36.0679 10.2791 35.8467 10.8323 35.736 11.3855C35.6254 11.9387 35.6254 12.4919 35.5701 13.0451C35.5701 13.7642 35.5148 14.5387 35.5701 15.2578C35.6807 16.3089 36.0679 17.3046 36.7318 18.0791C37.3403 18.7983 38.2254 19.1855 39.1658 19.2961C39.6637 19.2961 40.1062 19.2961 40.6041 19.1855C41.1573 19.0749 41.6552 18.7429 42.2084 18.5217C42.485 18.7983 42.7616 19.1855 43.0382 19.5174C42.6509 19.7387 42.2637 19.96 41.8211 20.1259C40.7148 20.5685 39.4424 20.6238 38.2807 20.4578C37.3956 20.2919 36.6211 19.8493 35.9573 19.2961C35.1828 18.6323 34.6296 17.7472 34.2977 16.8068C34.0765 16.1429 33.9658 15.4791 33.9105 14.8153C33.9105 14.3174 33.7999 13.8195 33.9105 13.2663C33.9105 12.3259 34.0765 11.3302 34.4637 10.4451C34.8509 9.33868 35.5148 8.28762 36.5105 7.56847Z" fill="#F7F7FF"/>
<path d="M0 0.875V26.875H25.834V0.875H0ZM17.5915 8.34309C16.3745 10.7218 15.1021 13.1005 13.8298 15.4793C13.7745 15.5899 13.7745 15.6452 13.7745 15.7559C13.7745 17.4707 13.7745 19.1856 13.7745 20.8452C13.166 20.8452 12.5574 20.8452 11.9489 20.8452C11.9489 19.1856 11.9489 17.5261 11.9489 15.8665C11.9489 15.7005 11.9489 15.4793 11.8383 15.3133C10.6766 13.1559 9.57021 10.9984 8.40851 8.78564C8.13191 8.28777 7.85532 7.78989 7.63404 7.2367C7.74468 7.2367 7.85532 7.18138 7.96595 7.18138C8.51914 7.18138 9.07234 7.18138 9.62553 7.2367C9.73617 7.2367 9.73617 7.29202 9.79149 7.34734C10.6213 9.06223 11.4511 10.8324 12.3362 12.6027C12.5021 12.9899 12.6681 13.3218 12.8894 13.6537C13.0553 13.3771 13.2213 13.1005 13.3872 12.7686C14.3277 10.8878 15.2681 9.06223 16.2085 7.18138C16.817 7.18138 17.4255 7.12606 18.0894 7.2367C17.9787 7.73457 17.7574 8.01117 17.5915 8.34309Z" fill="#F7F7FF"/>
<path d="M107.43 8.12161C107.928 7.95565 108.426 7.84501 108.979 7.73438C108.868 8.6748 108.813 9.61523 108.813 10.611C109.587 10.611 110.417 10.611 111.192 10.6663C111.081 11.0535 110.915 11.3854 110.749 11.7174C110.085 11.7174 109.421 11.7174 108.702 11.7174C108.702 12.6025 108.702 13.4876 108.702 14.3727C108.702 15.0365 108.758 15.7557 108.702 16.4748C108.702 17.2493 108.702 18.0791 108.758 18.8535C108.758 19.1854 109.09 19.4067 109.366 19.5174C109.864 19.628 110.362 19.5727 110.86 19.462C110.97 19.7386 111.026 20.0705 111.026 20.3471C110.583 20.5684 110.085 20.6237 109.587 20.6791C108.924 20.6791 108.149 20.5684 107.651 20.0705C107.264 19.6833 107.264 19.0748 107.209 18.5769C107.153 17.4705 107.209 16.3088 107.153 15.2025C107.153 14.0408 107.153 12.9344 107.153 11.7727C106.711 11.7727 106.268 11.7727 105.881 11.7727C105.881 11.3854 105.881 10.9982 105.881 10.6663C106.324 10.6663 106.711 10.6663 107.153 10.6663C107.319 9.78118 107.319 8.89608 107.43 8.12161ZM48.7917 10.3344C49.1789 10.3344 49.6215 10.3344 50.0087 10.445C50.8938 10.7216 51.6683 11.3854 52.1108 12.1599C52.4981 12.8791 52.7747 13.6535 52.83 14.4833C52.8853 15.5897 52.9406 16.6961 52.5534 17.7471C52.2215 18.7429 51.5577 19.628 50.6172 20.1259C49.6768 20.6237 48.5704 20.6791 47.5747 20.4025C46.6896 20.1812 45.9151 19.5727 45.3619 18.7982C44.8087 17.9684 44.5874 16.9727 44.5874 15.9216C44.5874 14.9812 44.5321 13.9854 44.864 13.045C45.1406 12.1599 45.7491 11.3301 46.5789 10.7769C46.9662 10.5557 47.3534 10.3344 47.796 10.2791C48.1279 10.3344 48.4598 10.3344 48.7917 10.3344ZM48.0172 11.6067C47.5194 11.7174 47.0215 12.0493 46.7449 12.4918C46.3577 13.1557 46.247 13.9301 46.247 14.7046C46.1917 15.2578 46.247 15.811 46.3023 16.3642C46.413 17.028 46.5236 17.7471 46.8555 18.3557C47.1874 19.0195 47.9066 19.2961 48.6257 19.3514C49.2896 19.4067 50.0087 19.2408 50.5066 18.6876C50.8938 18.245 51.1151 17.7471 51.1704 17.1386C51.2811 16.4195 51.2811 15.7003 51.2257 15.0365C51.2257 14.3174 51.1151 13.5429 50.8385 12.8237C50.6725 12.3812 50.3406 12.0493 49.9534 11.828C49.3449 11.4961 48.6811 11.4408 48.0172 11.6067ZM55.5406 10.6663C55.9832 10.5003 56.4257 10.3897 56.9236 10.3344C57.0896 10.7769 57.2002 11.2195 57.2555 11.7174C57.5874 11.5514 57.8087 11.2748 58.1406 11.1088C58.8045 10.611 59.6343 10.3344 60.464 10.3344C60.63 10.3344 60.8513 10.3897 61.0172 10.5003C61.2938 10.6663 61.5704 10.7769 61.847 10.9982C62.0683 11.2195 62.2342 11.5514 62.4002 11.828C62.7874 11.662 63.064 11.3301 63.3959 11.1088C63.9491 10.7216 64.613 10.3897 65.3874 10.3344C66.0513 10.2791 66.7151 10.5003 67.213 10.9429C67.4342 11.1642 67.6555 11.3854 67.7662 11.662C67.8768 11.9386 67.9321 12.2152 67.9321 12.5471C68.0428 14.0961 67.9874 15.7003 68.0428 17.2493C68.0428 18.3003 68.0428 19.3514 68.0428 20.4025C67.5449 20.4025 66.9917 20.4025 66.4938 20.4025C66.4938 18.8535 66.4938 17.2493 66.4938 15.7003C66.4938 14.7046 66.4938 13.7088 66.4385 12.6578C66.3832 12.3259 66.2172 12.0493 65.9406 11.828C65.664 11.662 65.2768 11.662 64.8896 11.662C64.2811 11.7174 63.7832 12.1046 63.2853 12.4918C63.064 12.6578 62.8428 12.8791 62.6215 13.045C62.5662 13.1003 62.5662 13.211 62.5662 13.2663C62.5662 15.645 62.5662 17.9684 62.5662 20.3471C62.0683 20.3471 61.5151 20.3471 61.0172 20.3471V14.8152C61.0172 14.3727 61.0172 13.9301 61.0172 13.4876C61.0172 13.045 61.0172 12.5471 60.8513 12.1599C60.5194 11.7174 59.9108 11.6067 59.413 11.7727C58.6385 11.9386 57.9747 12.4365 57.3662 12.9897C57.2555 13.045 57.2555 13.1557 57.2555 13.2663C57.2555 15.645 57.2555 18.0237 57.2555 20.4025C56.813 20.4025 56.3704 20.4025 55.9279 20.4025C55.8725 17.9684 55.9279 15.5344 55.8172 13.1003C55.8172 12.5471 55.8172 11.9939 55.7066 11.4408C55.6513 11.1642 55.5406 10.8876 55.5406 10.6663ZM81.9279 10.611C82.4257 10.5557 82.9236 10.445 83.4215 10.3344C83.4768 11.7174 83.4768 13.1003 83.4768 14.428C83.4768 16.4195 83.4768 18.3557 83.4768 20.3471C82.9789 20.3471 82.4257 20.3471 81.9279 20.3471C81.9279 17.5259 81.9279 14.7046 81.9279 11.8833C81.9279 11.4961 81.8725 10.9982 81.9279 10.611ZM101.787 10.3897C102.838 10.5557 103.724 11.5514 103.779 12.6578C103.834 14.262 103.779 15.9216 103.779 17.5259V18.0237C103.779 18.3557 103.779 18.6876 103.89 18.9642C103.945 19.2961 104.277 19.462 104.498 19.628C104.277 19.9046 104.111 20.2918 103.834 20.5131C103.668 20.6791 103.447 20.5131 103.336 20.4025C102.949 20.1259 102.728 19.7386 102.507 19.2961C102.175 19.462 101.953 19.7939 101.566 19.9599C101.013 20.3471 100.349 20.5131 99.63 20.5131C99.0215 20.5131 98.413 20.4025 97.8598 20.1259C96.9747 19.628 96.4768 18.6322 96.5321 17.6365C96.5321 16.6961 97.03 15.7557 97.7491 15.2025C98.6342 14.5386 99.7959 14.3174 100.902 14.2067C101.4 14.1514 101.898 14.1514 102.451 14.1514C102.451 13.6535 102.451 13.1557 102.341 12.6578C102.285 12.2705 102.064 11.828 101.677 11.6067C101.234 11.3854 100.681 11.3301 100.183 11.4408C99.2428 11.5514 98.3576 11.9386 97.5832 12.4918C97.3619 12.2152 97.1406 11.9386 96.9747 11.6067C96.864 11.4408 97.03 11.3301 97.1406 11.2748C98.1917 10.7216 99.2981 10.2237 100.515 10.2237H101.013C101.29 10.3344 101.511 10.3344 101.787 10.3897ZM101.124 15.3131C100.626 15.3684 100.183 15.3684 99.6853 15.4791C99.1321 15.645 98.6342 15.9769 98.3023 16.4748C98.1364 16.7514 98.1364 17.0833 98.1364 17.4152C98.1364 17.7471 98.0811 18.1344 98.247 18.4663C98.3577 18.7982 98.6342 19.1301 98.9662 19.2408C99.3534 19.4067 99.7959 19.4067 100.238 19.4067C100.736 19.3514 101.179 19.0748 101.566 18.7429C101.898 18.4663 102.23 18.1344 102.23 17.6918C102.285 16.9174 102.285 16.0876 102.285 15.3131C101.898 15.3684 101.511 15.2578 101.124 15.3131ZM117.941 10.445C118.826 10.6663 119.6 11.2195 120.153 11.9386C120.596 12.5471 120.873 13.211 120.983 13.9301C121.094 14.5939 121.149 15.3131 121.094 16.0322C121.094 17.1939 120.707 18.3003 120.043 19.1854C119.49 19.9046 118.604 20.3471 117.775 20.5131C116.724 20.6791 115.562 20.5131 114.621 19.8493C113.847 19.2961 113.349 18.411 113.073 17.4705C112.907 16.9727 112.907 16.5301 112.851 16.0322C112.851 15.2025 112.851 14.428 112.962 13.5982C113.183 12.7131 113.626 11.828 114.29 11.1642C114.787 10.6663 115.451 10.3897 116.115 10.2791C116.779 10.2791 117.387 10.3344 117.941 10.445ZM116.281 11.6067C115.562 11.7174 114.953 12.2705 114.732 12.9344C114.456 13.6535 114.456 14.428 114.456 15.1471C114.456 15.8663 114.456 16.5854 114.621 17.2493C114.732 17.7471 114.843 18.1897 115.175 18.5769C115.451 18.9642 115.949 19.1854 116.392 19.2408C116.558 19.2961 116.779 19.2961 116.945 19.2961H117.111H117.277C117.664 19.2408 117.996 19.1301 118.328 18.9642C118.715 18.7429 118.992 18.3557 119.158 17.9131C119.324 17.4152 119.379 16.862 119.434 16.3642C119.434 15.7557 119.49 15.1471 119.434 14.4833C119.379 13.8195 119.324 13.1557 118.992 12.6025C118.715 12.1599 118.328 11.828 117.83 11.6067C117.332 11.4961 116.779 11.4961 116.281 11.6067ZM123.749 10.7216C124.247 10.611 124.69 10.445 125.132 10.3344C125.409 10.8322 125.409 11.3854 125.464 11.8833C125.685 11.7174 125.907 11.4961 126.128 11.2748C126.792 10.611 127.787 10.2237 128.728 10.3897V10.5003C128.507 10.9429 128.396 11.4408 128.175 11.9386C128.175 12.0493 128.009 11.9939 127.953 11.9939C127.566 11.9939 127.068 11.9939 126.736 12.2152C126.349 12.4365 126.073 12.7131 125.796 13.045C125.519 13.3769 125.575 13.8195 125.575 14.2067C125.575 14.7599 125.519 15.3131 125.575 15.8663C125.575 17.3599 125.575 18.9088 125.575 20.4025C125.077 20.4025 124.524 20.4025 124.026 20.4025C124.026 18.7429 124.026 17.028 124.026 15.3684C124.026 14.2067 124.026 13.1003 123.97 11.9386C123.915 11.4961 123.804 11.1088 123.749 10.7216ZM86.464 10.7216C86.9066 10.5557 87.4045 10.3897 87.847 10.3897C88.013 10.8322 88.1236 11.3301 88.1789 11.7727C88.5662 11.4961 88.9534 11.1642 89.3406 10.9429C90.1704 10.445 91.1662 10.1131 92.0513 10.445C92.6045 10.611 93.1023 10.9429 93.4342 11.4408C93.7108 11.7727 93.7662 12.2705 93.8215 12.6578C93.9321 14.2067 93.8768 15.7003 93.8768 17.2493C93.8768 18.3003 93.8768 19.2961 93.8768 20.2918C93.3789 20.2918 92.8257 20.2918 92.3279 20.2918C92.3279 18.6322 92.2725 16.9174 92.2725 15.2578C92.2725 14.3174 92.2725 13.3769 92.1619 12.4365C91.996 11.9939 91.6087 11.6067 91.1108 11.6067C90.7789 11.6067 90.3917 11.6067 90.0598 11.7174C89.3406 11.9939 88.6768 12.4365 88.0683 12.9344C88.0683 15.3684 88.0683 17.8578 88.0683 20.2918C87.6257 20.2918 87.1832 20.2918 86.7406 20.2918C86.7406 18.9088 86.6853 17.5259 86.6853 16.0876C86.6853 14.6493 86.6853 13.211 86.5747 11.7727C86.6853 11.4961 86.5747 11.1088 86.464 10.7216Z" fill="#F7F7FF"/>
</g>
<defs>
<clipPath id="clip0_55_33738">
<rect width="128.672" height="26" fill="white" transform="translate(0 0.875)"/>
</clipPath>
</defs>
</svg>
